<?xml version="1.0" encoding="utf-8"?>
<!-- Generator: Adobe Illustrator 25.0.1, SVG Export Plug-In . SVG Version: 6.00 Build 0)  -->
<svg version="1.1" id="Layer_1" xmlns="http://www.w3.org/2000/svg" xmlns:xlink="http://www.w3.org/1999/xlink" x="0px" y="0px"
	 viewBox="0 0 166 24" style="enable-background:new 0 0 166 24;" xml:space="preserve">
<style type="text/css">
	.st0{fill:#FFFFFF;}
	.st1{fill-rule:evenodd;clip-rule:evenodd;fill:#FFFFFF;}
</style>
<path class="st0" d="M82.2,3l-6.1,5h4V24l2.1-1.7L82.2,3L82.2,3z M84,20.9l6.2-5.1h-4.1V0.1L84,1.5C84,1.5,84,20.9,84,20.9z
	 M160.5,5.8c0.7,0.4,1.2,0.7,1.5,0.9l2.2-4.2c-1.1-0.7-2.4-1.3-4-1.8c-1.5-0.5-3.2-0.8-4.9-0.8c-1.7,0-3.2,0.3-4.7,0.8
	c-1.4,0.6-2.5,1.4-3.4,2.5c-0.8,1.1-1.2,2.5-1.2,4.1c0,1.8,0.6,3.2,1.7,4.2c1.2,1,3,1.7,5.4,2.4c1.9,0.5,3.5,1,4.7,1.4
	c1.2,0.4,1.8,1,1.8,2c0,1.4-1.3,2.1-3.9,2.1c-1.3,0-2.5-0.2-3.7-0.5c-1.1-0.3-2.2-0.7-3-1.1c-0.8-0.4-1.4-0.9-1.8-1.2l-2.3,4.4
	c1.5,0.9,3.1,1.7,5,2.2c1.9,0.5,3.8,0.8,5.7,0.8c1.7,0,3.2-0.2,4.6-0.7c1.4-0.5,2.6-1.2,3.4-2.3c0.9-1.1,1.3-2.5,1.3-4.2
	c0-1.4-0.3-2.6-1-3.4c-0.6-0.9-1.6-1.6-2.8-2.1c-1.2-0.5-2.6-1-4.3-1.4c-1.9-0.4-3.3-0.9-4.3-1.2c-1-0.4-1.4-1-1.4-1.8
	c0-1.5,1.3-2.2,4-2.2c1,0,1.9,0.1,2.9,0.4C159.1,5.2,159.9,5.5,160.5,5.8L160.5,5.8z"/>
<path class="st1" d="M116.3,23.8c-1.8,0-3.5-0.3-5-1c-1.5-0.7-2.8-1.6-3.9-2.7c-1.1-1.1-1.9-2.4-2.5-3.9c-0.6-1.4-0.9-2.9-0.9-4.4
	c0-1.5,0.3-3,0.9-4.5c0.6-1.4,1.5-2.7,2.6-3.8c1.1-1.1,2.4-2,4-2.6s3.2-1,5-1c1.8,0,3.5,0.3,5,1.1c1.5,0.7,2.8,1.6,3.9,2.7
	c1.1,1.1,1.9,2.4,2.5,3.8c0.6,1.4,0.9,2.9,0.9,4.4c0,1.5-0.3,3-0.9,4.5c-0.6,1.4-1.5,2.7-2.6,3.8c-1.1,1.1-2.4,2-3.9,2.6
	C119.7,23.5,118.1,23.8,116.3,23.8L116.3,23.8z M109.1,11.9c0,1.3,0.3,2.5,0.9,3.6c0.6,1.1,1.4,2,2.5,2.7c1.1,0.7,2.4,1,3.9,1
	c1.5,0,2.8-0.4,3.9-1.1c1.1-0.8,1.9-1.7,2.4-2.8c0.6-1.1,0.8-2.3,0.8-3.5c0-1.3-0.3-2.5-0.9-3.6s-1.4-2-2.5-2.7
	c-1.1-0.7-2.3-1.1-3.8-1.1c-1.5,0-2.9,0.4-4,1.1c-1.1,0.7-1.9,1.7-2.4,2.8C109.3,9.6,109.1,10.7,109.1,11.9L109.1,11.9z M0.5,23.7
	L10.8,0.2h4.2l10.2,23.5h-5.4l-2.4-5.5H8.3l-2.4,5.5H0.5z M12.9,6.3l-3.4,7.4h6.8C16.2,13.7,12.9,6.3,12.9,6.3z"/>
<path class="st0" d="M45,0.2l6.5,8.3L58,0.2h5.5l-9.3,11.9l9,11.6h-5.5l-6.2-8l-6.1,8h-5.6l9-11.6L39.5,0.2H45z"/>
</svg>
