<?xml version="1.0" encoding="UTF-8"?>
<svg id="Layer_1" xmlns="http://www.w3.org/2000/svg" version="1.1" viewBox="0 0 800 153.1">
  <!-- Generator: Adobe Illustrator 29.1.0, SVG Export Plug-In . SVG Version: 2.1.0 Build 142)  -->
  <defs>
    <style>
      .st0 {
        fill-opacity: .2;
      }

      .st1 {
        fill: #119eff;
      }

      .st2 {
        fill: #fff;
      }

      .st3 {
        fill: #53b9ff;
      }
    </style>
  </defs>
  <path class="st2" d="M414.3,47.1c21.7,0,34.4,17,34.4,38s-12.7,38-34.4,38-18.2-4.5-22.1-9.4v32.3h-20.3V48.8h18.7v8.9c4.7-6.6,13.1-10.6,23.7-10.6ZM237.6,26.6c28,0,42.2,19,44.8,35.6h-21.6c-2.5-10-11.8-16.9-23.4-16.9s-26.6,12.3-26.6,29.7,11.1,29.5,26.6,29.5,20.9-6.9,23.4-16.9h21.6c-2.5,16.5-16.8,35.6-44.8,35.6s-47.2-21.5-47.2-48.2,19.3-48.4,47.2-48.4ZM320.6,47.1c10.5,0,18.9,3.9,23.7,10.6v-8.9h18.7v72.7h-18.7v-8.9c-4.7,6.6-13.1,10.6-23.7,10.6-21.7,0-34.4-17-34.4-38s12.7-38,34.4-38ZM487.9,47.1c10.5,0,18.9,3.9,23.7,10.6v-8.9h18.7v72.7h-18.7v-8.9c-4.7,6.6-13.1,10.6-23.7,10.6-21.7,0-34.4-17-34.4-38s12.7-38,34.4-38ZM573.5,47.1c23.2,0,34.2,16,35.7,28.3h-20.8c-1.6-6.2-7.5-10.8-15-10.8-10.8,0-17.1,8.3-17.1,20.5s6.3,20.5,17.1,20.5,13.4-4.6,15-10.8h20.8c-1.4,12.3-12.4,28.3-35.7,28.3s-37.5-16.4-37.5-38,15.8-38,37.5-38ZM713.9,47.1c23.9,0,39.2,17.3,39.2,38s-15.3,38-39.2,38-39.2-17.3-39.2-38,15.3-38,39.2-38ZM797.6,48c.7,0,2.4.1,2.4.1v18.5s-2.1-.4-3.9-.4c-11.7,0-17.8,5.7-17.8,19v36.2h-20V48.7h18.5v9.4c2.7-4.3,8.3-10.1,20.8-10.1ZM662.4,30.7v18h15.6v16.1h-15.6v56.7h-20.3V30.7h20.3ZM633.1,48.7v72.7h-20.3V48.7h20.3ZM324.9,64.4c-11.3,0-18.4,8.9-18.4,20.7s7.1,20.7,18.4,20.7,18.4-8.9,18.4-20.7c0-11.8-7.1-20.7-18.4-20.7ZM410,64.4c-11.3,0-18.4,8.9-18.4,20.7,0,11.8,7.1,20.7,18.4,20.7s18.4-8.9,18.4-20.7-7.1-20.7-18.4-20.7ZM492.1,64.4c-11.3,0-18.4,8.9-18.4,20.7s7.1,20.7,18.4,20.7,18.4-8.9,18.4-20.7c0-11.8-7.1-20.7-18.4-20.7ZM713.9,64.4c-10.7,0-18.9,7.6-18.9,20.7s8.2,20.7,18.9,20.7,18.9-7.6,18.9-20.7-8.2-20.7-18.9-20.7ZM623,19c7.1,0,12.3,5,12.3,11.9s-5.1,11.8-12.3,11.8-12.3-4.9-12.3-11.8,5.1-11.9,12.3-11.9Z"/>
  <g>
    <polygon class="st3" points="23.7 32.2 .2 55.8 36.5 92.2 0 128.8 23.5 152.4 60 115.8 96.4 152.1 119.9 128.5 23.7 32.2"/>
    <polygon class="st1" points="83.6 92.2 60 115.8 96.4 152.1 119.9 128.5 83.6 92.2"/>
    <polygon class="st0" points="83.6 92.2 60 115.8 69.1 124.8 83.6 92.2"/>
    <polygon class="st3" points="115.8 60.1 152.4 23.5 128.8 0 92.3 36.5 55.9 .2 32.4 23.8 128.6 120.1 152.1 96.5 115.8 60.1"/>
    <polygon class="st1" points="68.7 60.1 92.3 36.5 55.9 .2 32.4 23.8 68.7 60.1"/>
    <polygon class="st0" points="68.7 60.1 92.3 36.5 83.2 27.5 68.7 60.1"/>
  </g>
</svg>