<?xml version="1.0" encoding="utf-8"?>
<!-- Generator: Adobe Illustrator 25.0.1, SVG Export Plug-In . SVG Version: 6.00 Build 0)  -->
<svg version="1.1" id="Layer_1" xmlns="http://www.w3.org/2000/svg" xmlns:xlink="http://www.w3.org/1999/xlink" x="0px" y="0px"
	 viewBox="0 0 144 40.4" style="enable-background:new 0 0 144 40.4;" xml:space="preserve">
<style type="text/css">
	.st0{fill:#FFFFFF;}
</style>
<path class="st0" d="M44.9,40.4V9h1.7V14c0.2-0.2,0.4-0.5,0.6-0.7c1.4-2.9,4.4-4.8,7.7-4.8c3.9-0.1,7,1.3,8.9,4.8
	c1.2,2.1,1.8,4.5,1.9,7c0.1,2.4-0.5,4.9-1.5,7.1c-1.7,3.9-6,5.8-10.6,5.1c-1.4-0.1-2.8-0.6-4-1.4c-1.2-0.8-2.2-1.9-2.8-3.1v12.5
	H44.9z M46.6,20.1l0.4,3.7c0.7,4.2,3.2,6.7,7,7.1c1.8,0.3,3.7,0,5.3-1c1.6-0.9,2.8-2.4,3.5-4.1c1.5-3.6,1.4-7.7-0.3-11.2
	c-0.7-1.6-1.9-2.8-3.4-3.7c-1.5-0.8-3.2-1.1-4.9-0.9c-1.6,0.1-3.1,0.7-4.3,1.7c-1.2,1-2.1,2.4-2.5,3.9C47,17.2,46.7,18.6,46.6,20.1
	C46.6,20.1,46.6,20.1,46.6,20.1z M100.3,24.4c-0.3,2.2-1.3,4.2-3,5.7c-1.7,1.5-3.8,2.3-6,2.4c-7.1,0.4-10.5-4.4-11-9.8
	c-0.4-3,0.1-6,1.4-8.7c0.9-1.9,2.3-3.4,4.2-4.4c1.8-1,3.9-1.3,5.9-1.1c1.9,0.2,3.8,0.9,5.3,2.2c1.5,1.3,2.5,3,3,4.9
	c0.4,1.7,0.6,3.5,0.8,5.2H82.1c-0.3,5,2.3,8.9,6.1,9.9c4.7,1.2,8.7-0.9,10.2-5.4C98.7,24.2,99.3,24.1,100.3,24.4
	C100.3,24.4,100.3,24.4,100.3,24.4z M82.1,19.2h16.8c-0.1-5.3-3.4-9.1-7.9-9.2C86,10,82.3,13.7,82.1,19.2z M103.8,24.5h1.6
	c0.1,1.2,0.5,2.4,1.1,3.4c0.7,1,1.6,1.8,2.7,2.3c1.4,0.6,2.9,0.9,4.4,0.9c1.5,0,3-0.4,4.4-1.1c0.7-0.3,1.4-0.9,1.8-1.6
	c0.4-0.7,0.6-1.5,0.5-2.3c0-0.8-0.2-1.5-0.6-2.2c-0.4-0.6-1.1-1.1-1.8-1.4c-1.8-0.7-3.7-1-5.6-1.6c-1.9-0.5-3.8-1.2-5.6-2
	c-3-1.4-3.2-7.1,0.2-8.9c1.7-1,3.7-1.5,5.6-1.5c2,0,3.9,0.4,5.7,1.4c2.2,1.2,3.4,3.6,3,6.1h-1.4c0-0.1-0.1-0.1-0.1-0.2
	c-0.2-4.5-4-5.9-8-5.5c-1.2,0.1-2.4,0.5-3.5,1.1c-0.7,0.3-1.2,0.8-1.6,1.4s-0.5,1.3-0.5,2.1c0,0.7,0.2,1.4,0.6,2
	c0.4,0.6,1,1,1.7,1.3c1.8,0.6,3.6,1.1,5.5,1.6l4.4,1.2c1,0.3,1.9,1,2.5,1.8c0.6,0.8,1,1.9,1.1,2.9c0.4,2.4-0.9,4.7-3,5.8
	c-3.9,2.2-10.2,1.6-13.1-1.2C104.6,28.5,103.8,26.6,103.8,24.5C103.8,24.5,103.8,24.5,103.8,24.5z M143,15.8h-1.5
	c0-0.2-0.1-0.4-0.1-0.6c0-1.2-0.4-2.3-1.2-3.1s-1.8-1.5-2.9-1.7c-2.1-0.6-4.4-0.5-6.5,0.3c-0.8,0.2-1.5,0.7-2.1,1.4
	s-0.8,1.5-0.8,2.4c0,0.8,0.2,1.7,0.7,2.3c0.5,0.7,1.2,1.1,2,1.3l7,1.8c0.8,0.2,1.5,0.4,2.2,0.7c2.2,0.8,3.8,2.9,3.8,5.3
	c0,1.2-0.3,2.3-0.9,3.3c-0.6,1-1.5,1.7-2.6,2.2c-1.6,0.7-3.4,1.1-5.2,1.2c-1.8,0-3.6-0.3-5.2-1c-1.4-0.6-2.5-1.6-3.3-2.8
	c-0.8-1.3-1.2-2.7-1.1-4.2h1.5c0.6,2.7,2.4,5,5,6.1c2.6,1.1,5.5,0.8,7.8-0.7c0.7-0.4,1.3-0.9,1.7-1.6c0.4-0.7,0.6-1.5,0.5-2.3
	c0-0.8-0.2-1.5-0.6-2.2c-0.4-0.6-1.1-1.1-1.8-1.4c-1.8-0.7-3.7-1-5.6-1.6c-1.9-0.5-3.8-1.2-5.6-2c-2.9-1.4-3.1-7,0.2-8.8
	c1.7-1,3.7-1.6,5.7-1.6c2,0,4,0.5,5.8,1.5c1,0.6,1.8,1.5,2.3,2.5C142.9,13.5,143.1,14.7,143,15.8L143,15.8L143,15.8z M42.1,31.9
	c-0.6,0.2-1.3,0.2-1.9,0c-0.6-0.2-1.1-0.7-1.4-1.2l-6-8.3l-0.9-1.2l-7,9.5c-0.3,0.5-0.8,1-1.3,1.2c-0.6,0.2-1.2,0.2-1.8,0l9-12
	L22.4,9.1c1.2-0.4,2.6,0,3.3,1.2l6.2,8.4l6.2-8.4c0.3-0.5,0.8-1,1.3-1.2c0.6-0.2,1.2-0.2,1.8,0l-3.2,4.3l-4.4,5.7
	c-0.1,0.1-0.2,0.2-0.3,0.4c-0.1,0.1-0.1,0.3-0.1,0.5c0,0.2,0,0.3,0.1,0.5c0.1,0.1,0.2,0.3,0.3,0.4L42.1,31.9
	C42,31.9,42.1,31.9,42.1,31.9z M80.1,8.9v1.6c-1.2-0.1-2.3,0.1-3.4,0.5c-1.1,0.4-2.1,1-2.9,1.9c-0.8,0.8-1.5,1.8-1.9,2.9
	c-0.4,1.1-0.6,2.3-0.6,3.4V32h-1.7V9h1.6v4.7C73.1,10.3,76.2,9,80.1,8.9L80.1,8.9L80.1,8.9z M0.4,19.8l0.7-3.6
	c2-7.1,10.2-10.1,15.8-5.7c3.3,2.6,4.1,6.2,4,10.4H2.3c-0.3,7.4,5,11.8,11.8,9.5c2.2-0.8,3.9-2.7,4.5-5c0.4-1.2,1-1.4,2-1
	c-0.2,1.4-0.7,2.8-1.5,4c-0.8,1.2-1.8,2.2-3,2.9c-2,1.1-4.3,1.5-6.6,1.2c-2.3-0.3-4.4-1.3-6.1-2.9c-1.7-1.9-2.7-4.2-2.9-6.7
	c0-0.4-0.1-0.8-0.2-1.2C0.4,21.1,0.4,20.4,0.4,19.8L0.4,19.8L0.4,19.8z M2.3,19.3h16.8c-0.1-5.3-3.5-9.1-8-9.2
	C6.1,10,2.5,13.7,2.3,19.3L2.3,19.3z"/>
</svg>
