<svg xmlns="http://www.w3.org/2000/svg" width="144" height="32" fill="none" viewBox="0 0 144 32">
    <path fill="#fff" d="M44.851 32V.626h1.702v4.935c.201-.219.387-.451.556-.696C48.529 1.917 51.528.055 54.8.092c3.88-.115 7.033 1.32 8.886 4.773 1.179 2.145 1.828 4.541 1.892 6.988.064 2.447-.457 4.873-1.522 7.077-1.726 3.87-5.99 5.793-10.555 5.087-1.42-.121-2.788-.596-3.979-1.381-1.19-.785-2.164-1.856-2.834-3.115V32L44.851 32zm1.702-20.276l.381 3.684c.673 4.194 3.152 6.671 7.044 7.137 1.828.3 3.704-.042 5.307-.97 1.604-.927 2.836-2.382 3.487-4.116 1.514-3.608 1.402-7.692-.3-11.216-.694-1.554-1.876-2.84-3.367-3.664-1.49-.824-3.208-1.14-4.894-.9-1.582.114-3.09.72-4.313 1.73-1.222 1.012-2.1 2.378-2.51 3.911-.363 1.45-.641 2.92-.835 4.403v.001zm53.774 4.264c-.258 2.21-1.31 4.25-2.96 5.741-1.65 1.492-3.784 2.334-6.008 2.37-7.137.359-10.486-4.38-11.018-9.85-.37-2.97.112-5.983 1.39-8.69.89-1.856 2.347-3.38 4.161-4.353 1.815-.973 3.891-1.343 5.93-1.057 1.938.165 3.775.935 5.251 2.202 1.476 1.266 2.517 2.964 2.975 4.855.362 1.722.629 3.462.799 5.214H82.104c-.347 4.958 2.317 8.945 6.094 9.906 4.704 1.157 8.724-.881 10.183-5.353.324-1.148.915-1.31 1.958-.985h-.012zM82.09 10.833h16.765C98.75 5.55 95.461 1.71 91 1.667c-5.038-.081-8.69 3.604-8.91 9.166zm21.702 5.271h1.643c.06 1.21.453 2.381 1.136 3.383.683 1.001 1.628 1.795 2.733 2.294 1.387.624 2.897.928 4.418.888 1.52-.04 3.012-.423 4.364-1.12.738-.331 1.355-.881 1.77-1.576.414-.694.605-1.498.548-2.305.042-.777-.17-1.548-.605-2.194-.435-.646-1.069-1.133-1.805-1.386-1.808-.673-3.73-1.043-5.572-1.634-1.917-.546-3.791-1.23-5.608-2.05-2.968-1.449-3.152-7.09.208-8.877 1.721-.97 3.657-1.495 5.632-1.526 1.975-.03 3.927.435 5.676 1.352 2.17 1.198 3.37 3.617 3.013 6.072h-1.409c0-.068-.128-.128-.128-.197-.174-4.493-3.951-5.898-8.005-5.503-1.226.136-2.387.506-3.476 1.053-.655.3-1.2.794-1.561 1.417s-.52 1.342-.454 2.06c.002.716.225 1.416.64 2 .415.586 1.001 1.028 1.677 1.267 1.77.649 3.649 1.066 5.48 1.575l4.425 1.157c1.005.33 1.887.958 2.528 1.8.642.842 1.012 1.859 1.063 2.916.354 2.376-.858 4.71-3 5.793-3.87 2.189-10.242 1.61-13.081-1.158-1.453-1.46-2.263-3.444-2.246-5.502l-.004.001zm39.181-8.678h-1.541c0-.208-.082-.408-.105-.567-.024-1.156-.445-2.267-1.192-3.149-.747-.882-1.774-1.48-2.91-1.694-2.141-.614-4.426-.504-6.499.313-.82.235-1.541.728-2.057 1.407s-.798 1.506-.805 2.359c-.029.837.232 1.658.738 2.325.507.668 1.228 1.14 2.042 1.336l7.044 1.808c.762.182 1.512.41 2.247.683 2.246.817 3.771 2.903 3.839 5.287.033 1.166-.287 2.316-.918 3.298-.632.981-1.546 1.749-2.622 2.202-1.635.742-3.407 1.135-5.202 1.153-1.796.018-3.576-.339-5.225-1.049-1.357-.585-2.501-1.57-3.28-2.826-.779-1.255-1.155-2.72-1.077-4.194h1.506c.566 2.73 2.441 5.003 5.013 6.078 2.572 1.076 5.508.812 7.847-.702.702-.365 1.284-.923 1.679-1.61.394-.685.583-1.47.546-2.26.035-.777-.185-1.546-.626-2.188-.442-.642-1.08-1.122-1.819-1.369-1.808-.672-3.731-1.03-5.573-1.633-1.927-.538-3.813-1.215-5.641-2.027-2.898-1.426-3.129-7.021.174-8.806 1.742-1.012 3.715-1.555 5.73-1.578 2.014-.022 3.999.477 5.763 1.45 1.009.602 1.821 1.484 2.337 2.54.516 1.055.715 2.238.571 3.404l.016.01zM42.051 23.532c-.607.23-1.276.229-1.883-.002-.606-.23-1.107-.675-1.408-1.25l-5.99-8.284-.869-1.157-6.95 9.454c-.284.55-.758.978-1.334 1.204-.576.226-1.214.234-1.796.024l8.956-12.014L22.445.65c1.236-.446 2.614.039 3.302 1.158l6.208 8.386 6.244-8.354c.286-.54.76-.957 1.333-1.17.572-.214 1.203-.21 1.773.012l-3.233 4.29-4.38 5.7c-.122.108-.219.242-.286.39-.066.149-.1.31-.1.473 0 .163.034.324.1.473.067.149.164.282.286.39l8.341 11.134h.018zM80.076.535v1.633c-1.172-.076-2.347.093-3.45.499-1.102.405-2.107 1.037-2.95 1.855-.842.817-1.504 1.803-1.943 2.892-.438 1.09-.643 2.259-.602 3.432V23.59h-1.657V.637h1.634V5.34C73.112 1.91 76.205.637 80.086.544l-.01-.01zM.378 11.357l.73-3.604C3.11.627 11.28-2.337 16.9 2.076c3.29 2.584 4.112 6.245 3.95 10.37H2.313c-.3 7.368 5.017 11.817 11.818 9.546 2.24-.817 3.927-2.68 4.483-4.994.36-1.157.953-1.356 2.04-1.02-.182 1.41-.68 2.761-1.46 3.951-.778 1.19-1.816 2.189-3.036 2.92-2.016 1.102-4.328 1.538-6.607 1.247-2.279-.29-4.407-1.295-6.08-2.869C1.814 19.366.815 17.013.62 14.53c0-.409-.136-.79-.231-1.157-.01-.687-.014-1.36-.014-2.015h.003zm1.957-.499H19.1c-.105-5.34-3.476-9.13-7.971-9.165-5.005-.068-8.585 3.638-8.806 9.142l.012.023z"/>
</svg>
