<svg xmlns="http://www.w3.org/2000/svg" width="43" height="43"><g fill="none" fill-rule="evenodd"><path fill="#F7DF1E" d="M0 0h43v43H0z"/><path fill="#000" fill-rule="nonzero" d="m11.306 35.934 3.29-1.992c.636 1.126 1.213 2.078 2.598 2.078 1.328 0 2.166-.519 2.166-2.54V19.742h4.04v13.797c0 4.185-2.453 6.09-6.032 6.09-3.233 0-5.11-1.674-6.062-3.694m14.29-.433 3.29-1.905c.866 1.414 1.991 2.453 3.983 2.453 1.674 0 2.742-.837 2.742-1.991 0-1.386-1.097-1.877-2.944-2.684l-1.01-.434c-2.916-1.24-4.85-2.8-4.85-6.09 0-3.03 2.31-5.34 5.918-5.34 2.569 0 4.416.895 5.744 3.233l-3.147 2.02c-.693-1.24-1.443-1.731-2.597-1.731-1.184 0-1.934.75-1.934 1.732 0 1.212.75 1.703 2.482 2.453l1.01.433c3.435 1.472 5.369 2.973 5.369 6.35 0 3.637-2.858 5.629-6.697 5.629-3.752 0-6.177-1.79-7.36-4.128"/></g></svg>