<?xml version="1.0" encoding="utf-8"?>
<!-- Generator: Adobe Illustrator 25.0.1, SVG Export Plug-In . SVG Version: 6.00 Build 0)  -->
<svg version="1.1" id="Layer_1" xmlns="http://www.w3.org/2000/svg" xmlns:xlink="http://www.w3.org/1999/xlink" x="0px" y="0px"
	 viewBox="0 0 103.7 22.5" style="enable-background:new 0 0 103.7 22.5;" xml:space="preserve">
<style type="text/css">
	.st0{fill:#FF3D57;}
	.st1{fill:#FFCB00;}
	.st2{fill:#00D647;}
	.st3{fill-rule:evenodd;clip-rule:evenodd;fill:#FFFFFF;}
</style>
<g transform="matrix(.918418 0 0 .918418 3.800969 2.447472)">
	<g transform="matrix(2.051626 0 0 2.051626 -18.029941 -31.126435)">
		<path class="st0" d="M9.2,25.8c-1.3,0-2.4-1.1-2.4-2.4c0-0.5,0.1-0.9,0.4-1.3l4.4-7c0.7-1.1,2.2-1.5,3.4-0.8
			c1.1,0.7,1.5,2.2,0.8,3.4l-4.4,7C10.8,25.4,10,25.8,9.2,25.8z"/>
		<path class="st1" d="M16.7,25.8c-1.3,0-2.4-1.1-2.4-2.4c0-0.5,0.1-0.9,0.4-1.3l4.4-7c0.7-1.2,2.2-1.6,3.3-0.9s1.6,2.2,0.9,3.3
			c0,0.1-0.1,0.1-0.1,0.2l-4.4,7C18.4,25.4,17.6,25.8,16.7,25.8L16.7,25.8z"/>
		<ellipse class="st2" cx="24.3" cy="23.4" rx="2.4" ry="2.4"/>
	</g>
	<path class="st3" d="M108.8,5.2h-2.9l-2,5.2l-2-5.2H99l3.5,8.2l-2.2,5.4h2.9L108.8,5.2z M91.4,9.8c0,1.3,1.2,2.2,2.3,2.2
		c1.1,0,2.2-0.8,2.2-2.2s-1.1-2.2-2.2-2.2C92.6,7.6,91.4,8.5,91.4,9.8z M95.9,14.4v-1c-0.6,0.9-2,1.2-2.7,1.2
		c-2.6,0-4.7-2.1-4.7-4.7c0,0,0-0.1,0-0.1c-0.1-2.6,2-4.7,4.6-4.8c0,0,0.1,0,0.1,0c0.6,0,2,0.2,2.7,1.2v-1h2.7v9.1L95.9,14.4z
		 M87.8,14.4h-2.7v-1.1c-0.4,0.8-1.5,1.3-2.7,1.3c-2.3,0-4.4-1.9-4.4-4.7c0-2.9,2.1-4.8,4.4-4.8c1.1,0,2.2,0.5,2.7,1.3V0.3h2.7V14.4
		z M85.1,9.8c0-1.4-1-2.2-2.1-2.2c-1.2,0-2.1,0.9-2.1,2.2c0,1.4,1,2.2,2.1,2.2C84.1,12,85.1,11.1,85.1,9.8z M71.4,9.6
		c0-1.4,0.7-1.9,1.7-1.9c0.9,0,1.6,0.6,1.6,1.8v4.9h2.7V8.9c0-2.6-1.3-3.9-3.3-3.9c-1.1,0-2.2,0.6-2.6,1.5V5.3h-2.7v9.1h2.7
		L71.4,9.6z M63.1,14.5c-2.6,0-4.7-1.9-4.7-4.8s2.2-4.7,4.7-4.7s4.8,1.9,4.8,4.7S65.7,14.5,63.1,14.5z M63.1,11.9
		c1.1,0,2.1-0.8,2.1-2.1c0-1.2-0.9-2.1-2.1-2.1c-1.1,0-2,0.9-2.1,2c0,0,0,0.1,0,0.1C61.1,11.1,62,11.9,63.1,11.9z M53.5,7.7
		c0.8,0,1.5,0.6,1.5,1.8v4.9h2.7V9.2c0-2.8-1.4-4.1-3.5-4.1c-0.6,0-1.9,0.2-2.7,1.6c-0.5-1.1-1.5-1.6-2.9-1.6c-1,0-2,0.6-2.4,1.5
		V5.2h-2.7v9.1h2.7V9.6c0-1.4,0.8-1.9,1.6-1.9c0.8,0,1.5,0.6,1.5,1.8v4.9h2.7V9.6C51.9,8.2,52.6,7.7,53.5,7.7L53.5,7.7z"/>
</g>
</svg>
