<svg xmlns="http://www.w3.org/2000/svg" width="70" height="48" fill="none" viewBox="0 0 70 48"><path fill="#fff" fill-rule="evenodd" d="M47.314 4.877c-.324 0-.553.04-.784.098v.039h.037c.155.312.423.529.612.801.154.313.288.624.441.937.02-.019.038-.039.038-.039.27-.194.403-.508.403-.977-.116-.137-.134-.273-.23-.41-.115-.195-.364-.293-.517-.45zM16.882 43.437h-2.65c-.093-4.567-.351-8.863-.773-12.886h-.024L9.4 43.437H7.383L3.373 30.55H3.35c-.297 3.864-.484 8.16-.562 12.886H.372C.528 37.688.919 32.3 1.544 27.269h3.284l3.822 11.88h.024l3.846-11.88h3.142c.688 5.892 1.094 11.282 1.22 16.168zm11.492-11.929c-1.08 5.98-2.502 10.326-4.27 13.035-1.375 2.088-2.883 3.133-4.525 3.133-.438 0-.977-.135-1.618-.402v-1.441c.313.046.68.071 1.103.071.765 0 1.383-.216 1.853-.647.562-.526.843-1.117.843-1.772 0-.447-.22-1.366-.656-2.755l-2.91-9.222H20.8l2.087 6.898c.469 1.566.664 2.658.586 3.282 1.142-3.114 1.94-6.507 2.393-10.18h2.51-.002zM63.646 43.437h-7.528V27.269h2.533v14.18h4.995v1.988zM44.72 40.203c-.64-1.055-.962-2.746-.962-5.077 0-4.072 1.212-6.108 3.636-6.108 1.267 0 2.196.487 2.79 1.46.64 1.054.963 2.73.963 5.03 0 4.104-1.213 6.157-3.636 6.157-1.266 0-2.197-.487-2.79-1.462h-.001zm9.428 3.624l-2.91-1.465c.264-.218.508-.46.729-.723 1.235-1.483 1.853-3.678 1.853-6.585 0-5.35-2.056-8.025-6.168-8.025-2.017 0-3.59.678-4.714 2.037-1.236 1.484-1.853 3.672-1.853 6.562 0 2.842.547 4.928 1.64 6.251 1.002 1.197 2.51 1.798 4.528 1.798.754 0 1.445-.095 2.073-.285l3.79 2.252 1.032-1.818v.001zM39.98 38.956c0 1.371-.493 2.496-1.477 3.377-.984.877-2.306 1.317-3.962 1.317-1.548 0-3.05-.506-4.503-1.511l.68-1.388c1.252.64 2.384.958 3.4.958.954 0 1.7-.217 2.24-.646.538-.43.86-1.031.86-1.795 0-.96-.654-1.78-1.857-2.468-1.11-.623-3.33-1.922-3.33-1.922-1.202-.896-1.805-1.857-1.805-3.441 0-1.31.45-2.369 1.348-3.174.9-.807 2.06-1.21 3.482-1.21 1.47 0 2.807.4 4.01 1.198l-.611 1.387c-1.03-.445-2.046-.669-3.047-.669-.813 0-1.44.2-1.875.6-.44.398-.71.909-.71 1.532 0 .958.67 1.788 1.906 2.49 1.125.623 3.398 1.947 3.398 1.947 1.237.894 1.853 1.847 1.853 3.418z" clip-rule="evenodd"/><path fill="#fff" fill-rule="evenodd" d="M66.825 21.852c-1.531-.039-2.717.117-3.71.547-.288.117-.746.117-.786.489.154.155.173.41.308.625.229.391.63.917.994 1.192.401.312.803.624 1.225.897.745.47 1.587.743 2.313 1.213.422.272.841.624 1.263.918.21.156.343.41.612.506v-.058c-.135-.176-.173-.429-.306-.626-.19-.194-.382-.37-.574-.566-.56-.756-1.231-1.421-1.989-1.97-.612-.433-1.952-1.019-2.2-1.739l-.039-.04c.421-.04.92-.197 1.32-.316.65-.174 1.243-.134 1.913-.31.306-.079.612-.177.92-.273v-.177c-.346-.35-.594-.82-.957-1.152-.99-.883-2.046-1.686-3.157-2.403-.594-.39-1.359-.644-1.99-.977-.229-.117-.61-.175-.745-.372-.345-.428-.537-.995-.785-1.504-.566-1.112-1.089-2.245-1.568-3.399-.344-.761-.555-1.522-.976-2.226-1.97-3.322-4.112-5.333-7.402-7.306-.708-.412-1.55-.586-2.448-.802-.479-.02-.957-.058-1.435-.078-.306-.136-.613-.508-.88-.684-1.091-.702-3.902-2.226-4.706-.214-.516 1.27.766 2.52 1.206 3.165.325.45.746.958.974 1.464.134.332.173.684.307 1.036.306.86.593 1.818.995 2.618.21.41.439.84.707 1.21.154.216.421.313.479.665-.267.39-.288.977-.44 1.466-.69 2.207-.422 4.942.554 6.563.305.489 1.033 1.562 2.009 1.152.86-.35.67-1.465.918-2.441.057-.235.019-.39.133-.547v.04c.268.546.536 1.073.785 1.621.594.956 1.625 1.953 2.487 2.616.458.353.821.957 1.395 1.173v-.058h-.037c-.115-.176-.287-.256-.44-.391-.362-.363-.695-.755-.995-1.172-.803-1.093-1.512-2.306-2.142-3.556-.307-.607-.574-1.27-.823-1.875-.114-.234-.114-.586-.306-.704-.288.43-.707.801-.917 1.328-.364.84-.402 1.876-.537 2.95-.076.02-.038 0-.076.04-.612-.157-.822-.801-1.052-1.347-.574-1.389-.67-3.615-.172-5.217.133-.409.709-1.699.478-2.09-.116-.373-.498-.585-.708-.88-.267-.393-.497-.812-.688-1.25-.46-1.093-.69-2.304-1.186-3.398-.23-.509-.632-1.037-.956-1.504-.364-.528-.766-.9-1.053-1.524-.095-.215-.229-.567-.076-.8.037-.157.115-.215.268-.256.248-.215.956.059 1.204.176.709.293 1.301.567 1.894.977.268.196.555.567.898.665h.403c.612.135 1.3.038 1.875.214 1.013.332 1.931.82 2.754 1.348 2.533 1.649 4.592 3.954 5.967 6.681.23.45.326.86.537 1.328.401.959.899 1.935 1.3 2.872.401.919.785 1.856 1.36 2.618.285.41 1.433.624 1.95.84.382.176.975.332 1.32.546.65.41 1.3.88 1.912 1.33.306.234 1.262.722 1.32 1.113zM65.454 43.435h.42V41.79h.55v-.337h-1.54v.337h.57v1.644zm3.194 0h.396v-1.981h-.595l-.484 1.35-.528-1.35h-.573v1.982h.374v-1.508h.022l.552 1.508h.285l.551-1.508v1.508-.001z" clip-rule="evenodd"/></svg>