<?xml version="1.0" encoding="UTF-8"?>
<svg id="Layer_1" xmlns="http://www.w3.org/2000/svg" xmlns:xlink="http://www.w3.org/1999/xlink" version="1.1" viewBox="0 0 2500 608.5">
  <!-- Generator: Adobe Illustrator 29.1.0, SVG Export Plug-In . SVG Version: 2.1.0 Build 142)  -->
  <defs>
    <style>
      .st0 {
        fill: url(#linear-gradient1);
      }

      .st1 {
        fill: url(#linear-gradient);
      }

      .st2 {
        fill: #fff;
      }
    </style>
    <linearGradient id="linear-gradient" x1="-1408" y1="493.8" x2="-1299" y2="587.6" gradientTransform="translate(4156 -1443.1) scale(3 3)" gradientUnits="userSpaceOnUse">
      <stop offset="0" stop-color="#5a9fd4"/>
      <stop offset="1" stop-color="#306998"/>
    </linearGradient>
    <linearGradient id="linear-gradient1" x1="-1256.9" y1="644.4" x2="-1295.8" y2="589.3" gradientTransform="translate(4156 -1443.1) scale(3 3)" gradientUnits="userSpaceOnUse">
      <stop offset="0" stop-color="#ffd43b"/>
      <stop offset="1" stop-color="#ffe873"/>
    </linearGradient>
  </defs>
  <path class="st2" d="M942.6,309.1c0-76.7-21.9-116-65.6-118.2-17.4-.8-34.4,1.9-50.9,8.4-13.2,4.7-22.1,9.4-26.7,14.1v183c28,17.6,52.8,25.7,74.5,24.4,45.8-3,68.8-40.2,68.8-111.7ZM996.6,312.3c0,39-9.1,71.3-27.5,97-20.5,29.1-48.9,44.1-85.1,44.9-27.4.9-55.5-7.7-84.5-25.7v166.3l-46.9-16.7V208.9c7.7-9.4,17.6-17.5,29.6-24.4,27.9-16.3,61.8-24.6,101.8-25l.7.7c36.5-.5,64.6,14.5,84.4,44.9,18.4,27.9,27.7,63.6,27.7,107.3h0ZM1283.2,421.5c0,52.2-5.2,88.4-15.7,108.5-10.5,20.1-30.5,36.2-60.1,48.1-24,9.4-49.9,14.6-77.7,15.4l-7.8-29.6c28.3-3.8,48.2-7.7,59.7-11.5,22.7-7.7,38.3-19.5,46.9-35.3,6.9-12.9,10.3-37.5,10.3-73.8v-12.2c-32.1,14.6-65.7,21.8-100.8,21.8s-43.5-7.2-61-21.8c-19.7-15.9-29.6-36-29.6-60.4v-195.2l46.9-16.1v196.5c0,21,6.8,37.2,20.3,48.5s31.1,16.8,52.6,16.4c21.5-.5,44.5-8.8,69-25v-229.3h46.9v254.9h0ZM1466.4,451.6c-5.1.4-10.3.7-15.4.7-26.5,0-47.2-6.3-62-19-14.7-12.7-22.1-30.2-22.1-52.5v-184.8h-32.1v-29.5h32.1v-78.4l46.9-16.7v95.1h52.7v29.5h-52.7v183.5c0,17.6,4.7,30.1,14.2,37.4,8.1,6,21,9.4,38.5,10.3v24.4h0ZM1750.4,447.8h-46.9v-181.1c0-18.4-4.3-34.3-12.9-47.5-9.9-15-23.7-22.5-41.3-22.5s-48.4,11.3-80.7,34v217h-46.9V15L1568.6.2v197.1c30-21.8,62.7-32.7,98.3-32.7s45,8.4,60.4,25c15.4,16.7,23.1,37.5,23.1,62.3v195.8h0,0ZM1999.7,301.7c0-29.5-5.6-53.8-16.7-73-13.2-23.5-33.8-35.8-61.6-37.1-51.4,3-77.1,39.8-77.1,110.4s5.3,59.4,16.1,81.1c13.8,27.7,34.4,41.3,61.9,40.9,51.6-.4,77.4-41.2,77.4-122.3h0ZM2051.1,302c0,41.9-10.7,76.8-32.1,104.7-23.6,31.2-56.1,46.9-97.6,46.9s-73.2-15.7-96.4-46.9c-21-27.9-31.5-62.8-31.5-104.7s11.3-72.6,34-99.6c24-28.6,55.5-43,94.4-43s70.7,14.4,95.1,43c22.7,27,34,60.2,34,99.6h0ZM2320,447.8h-46.9v-191.3c0-21-6.3-37.4-18.9-49.2-12.6-11.8-29.5-17.4-50.5-17-22.3.4-43.5,7.7-63.6,21.8v235.7h-46.9v-241.5c27-19.7,51.8-32.5,74.5-38.5,21.4-5.6,40.3-8.4,56.6-8.4s21.6,1.1,31.5,3.2c18.4,4.3,33.4,12.2,45,23.8,12.9,12.8,19.3,28.2,19.3,46.2v215.1h0Z"/>
  <path class="st1" d="M289.2,16.7c-24.1.1-47.2,2.2-67.5,5.8-59.7,10.6-70.6,32.6-70.6,73.4v53.8h141.2v17.9H98.1c-41,0-77,24.7-88.2,71.6-13,53.8-13.5,87.3,0,143.5,10,41.8,34,71.6,75,71.6h48.5v-64.5c0-46.6,40.3-87.7,88.2-87.7h141c39.3,0,70.6-32.3,70.6-71.7V95.9c0-38.3-32.3-67-70.6-73.4-24.3-4-49.4-5.9-73.6-5.8h0ZM212.8,60c14.6,0,26.5,12.1,26.5,27s-11.9,26.8-26.5,26.8-26.5-12-26.5-26.8,11.9-27,26.5-27h0Z"/>
  <path class="st0" d="M450.9,167.6v62.7c0,48.6-41.2,89.5-88.2,89.5h-141c-38.6,0-70.6,33.1-70.6,71.7v134.4c0,38.3,33.3,60.8,70.6,71.7,44.7,13.1,87.5,15.5,141,0,35.5-10.3,70.6-31,70.6-71.7v-53.8h-141v-17.9h211.6c41,0,56.3-28.6,70.6-71.6,14.7-44.2,14.1-86.8,0-143.5-10.1-40.8-29.5-71.6-70.6-71.6h-53ZM371.6,508c14.6,0,26.5,12,26.5,26.8s-11.9,27-26.5,27-26.5-12.1-26.5-27,11.9-26.8,26.5-26.8Z"/>
  <path class="st2" d="M2411.3,124.7h8.2v-51.6h19.5v-6.1h-47.2v6.1h19.5v51.6M2446.3,124.7h7v-47.1l15.2,47.1h7.8l15.9-46.9v47h7.7v-57.7h-10.1l-17.4,49.5-14.8-49.5h-11.3v57.7"/>
</svg>