<?xml version="1.0" encoding="UTF-8"?>
<svg id="Layer_1" xmlns="http://www.w3.org/2000/svg" version="1.1" viewBox="0 0 1694.3 1824.1">
  <!-- Generator: Adobe Illustrator 29.1.0, SVG Export Plug-In . SVG Version: 2.1.0 Build 142)  -->
  <defs>
    <style>
      .st0 {
        fill: #61dafb;
      }
    </style>
  </defs>
  <path class="st0" d="M1665.1,734.7c0-109.3-136.9-212.9-346.7-277.1,48.4-213.9,26.9-384-67.9-438.5-21.9-12.8-47.4-18.8-75.3-18.8v75c15.5,0,27.9,3,38.3,8.7,45.7,26.2,65.6,126.1,50.1,254.6-3.7,31.6-9.7,64.9-17.1,98.9-65.9-16.1-137.9-28.6-213.5-36.7-45.4-62.2-92.5-118.7-139.9-168.1,109.6-101.9,212.5-157.7,282.5-157.7V0c-92.5,0-213.5,65.9-335.9,180.2C717.2,66.6,596.1,1.3,503.6,1.3v75c69.6,0,172.8,55.5,282.5,156.7-47.1,49.4-94.2,105.6-138.9,167.8-76,8.1-148,20.5-213.9,37-7.7-33.6-13.5-66.2-17.5-97.5-15.8-128.5,3.7-228.3,49.1-254.9,10.1-6.1,23.2-8.7,38.7-8.7V1.7c-28.2,0-53.8,6.1-76,18.8-94.5,54.5-115.7,224.3-66.9,437.5C151.6,522.6,15.4,625.8,15.4,734.7s136.9,212.9,346.7,277.1c-48.4,213.9-26.9,384,67.9,438.5,21.9,12.8,47.4,18.8,75.7,18.8,92.5,0,213.5-65.9,335.9-180.2,122.4,113.7,243.5,178.9,335.9,178.9s53.8-6.1,76-18.8c94.5-54.5,115.7-224.3,66.9-437.5,208.5-64.2,344.7-167.8,344.7-276.8h0ZM1227.3,510.5c-12.4,43.4-27.9,88.1-45.4,132.8-13.8-26.9-28.2-53.8-44-80.7-15.5-26.9-31.9-53.1-48.4-78.7,47.7,7.1,93.8,15.8,137.9,26.6h0ZM1073.3,868.6c-26.2,45.4-53.1,88.4-81,128.5-50.1,4.4-100.9,6.7-152,6.7s-101.6-2.4-151.3-6.4c-27.9-40-55.2-82.7-81.4-127.8-25.6-44-48.8-88.8-69.9-133.8,20.9-45.1,44.4-90.1,69.6-134.2,26.2-45.4,53.1-88.4,81-128.5,50.1-4.4,100.9-6.7,152-6.7s101.6,2.4,151.3,6.4c27.9,40,55.2,82.7,81.4,127.8,25.6,44,48.8,88.8,69.9,133.8-21.2,45.1-44.4,90.1-69.6,134.2ZM1181.9,824.9c17.7,43.8,33.1,88.5,46.4,133.8-44.1,10.8-90.5,19.8-138.5,26.9,16.5-25.9,32.9-52.5,48.4-79.7,15.5-26.9,29.9-54.1,43.7-81h0ZM840.9,1183.7c-31.3-32.3-62.5-68.3-93.5-107.6,30.3,1.3,61.2,2.4,92.5,2.4s62.9-.7,93.5-2.4c-28.9,37.5-59.7,73.4-92.5,107.6ZM590.7,985.6c-47.7-7.1-93.8-15.8-137.9-26.6,12.4-43.4,27.9-88.1,45.4-132.8,13.8,26.9,28.2,53.8,44,80.7,15.8,26.9,31.9,53.1,48.4,78.7ZM839.2,285.8c31.3,32.3,62.5,68.3,93.5,107.6-30.3-1.3-61.2-2.4-92.5-2.4s-62.9.7-93.5,2.4c28.9-37.5,59.7-73.4,92.5-107.6ZM590.4,483.9c-16.5,25.9-32.9,52.5-48.4,79.7-15.5,26.9-29.9,53.8-43.7,80.7-17.7-43.8-33.1-88.5-46.4-133.8,44-10.4,90.4-19.5,138.5-26.6ZM286.1,904.9c-119-50.8-196-117.4-196-170.2s77-119.7,196-170.1c28.9-12.4,60.5-23.5,93.1-34,19.2,65.9,44.4,134.5,75.7,204.8-30.9,69.9-55.8,138.2-74.7,203.8-33.3-10.4-64.9-21.9-94.2-34.3h0ZM467,1385.4c-45.7-26.2-65.6-126.1-50.1-254.6,3.7-31.6,9.7-64.9,17.1-98.9,65.9,16.1,137.9,28.6,213.5,36.7,45.4,62.2,92.5,118.7,139.9,168.1-109.6,101.9-212.5,157.7-282.5,157.7-15.1-.3-27.9-3.4-38-9.1ZM1264.6,1129.2c15.8,128.5-3.7,228.3-49.1,254.9-10.1,6.1-23.2,8.7-38.7,8.7-69.6,0-172.8-55.5-282.5-156.7,47.1-49.4,94.2-105.6,138.9-167.8,76-8.1,148-20.5,213.9-37,7.7,34,13.8,66.6,17.5,97.9h0ZM1394.1,904.9c-28.9,12.4-60.5,23.5-93.1,34-19.2-65.9-44.4-134.5-75.7-204.8,30.9-69.9,55.8-138.2,74.7-203.8,33.3,10.4,64.9,21.9,94.5,34.3,119,50.8,196,117.4,196,170.1-.3,52.8-77.3,119.7-196.4,170.2h0Z"/>
  <path class="st0" d="M839.9,888.4c84.9,0,153.7-68.8,153.7-153.7s-68.8-153.7-153.7-153.7-153.7,68.8-153.7,153.7,68.8,153.7,153.7,153.7ZM90.3,1733.7h-50.7v87.4H10.9v-216h71.5c24.3,0,43,5.5,56.1,16.6,13.2,11.1,19.7,27.2,19.7,48.3s-3.7,25.2-11,35.2c-7.2,10-17.3,17.5-30.3,22.4l50.7,91.7v1.8h-30.6l-46.9-87.4ZM39.6,1710.5h43.8c14.1,0,25.4-3.7,33.7-11,8.4-7.3,12.6-17.1,12.6-29.4s-4-23.6-12-30.7c-7.9-7.1-19.4-10.7-34.4-10.8h-43.6v81.9ZM260.6,1824.1c-21.8,0-39.5-7.1-53.1-21.4-13.6-14.3-20.5-33.5-20.5-57.4v-5c0-15.9,3-30.1,9-42.6,6.1-12.6,14.6-22.4,25.5-29.4,11-7.1,22.8-10.7,35.6-10.7,20.9,0,37.1,6.9,48.7,20.6,11.6,13.7,17.4,33.4,17.4,59v11.4h-108.7c.4,15.8,5,28.6,13.8,38.4,8.9,9.7,20.2,14.5,33.8,14.5s17.9-2,24.6-5.9c6.7-4,12.6-9.2,17.7-15.7l16.8,13.1c-13.5,20.7-33.6,31-60.5,31h0ZM257.2,1680.2c-11.1,0-20.4,4.1-27.9,12.2-7.5,8-12.2,19.3-13.9,33.8h80.4v-2.1c-.8-13.9-4.5-24.7-11.3-32.3-6.7-7.7-15.8-11.6-27.3-11.6h0ZM454.1,1821.1c-1.6-3.2-2.9-8.8-3.9-16.9-12.8,13.2-28,19.9-45.7,19.9s-28.8-4.5-39-13.4c-10.1-9-15.1-20.4-15.1-34.1s6.3-29.7,19-38.9c12.8-9.3,30.7-13.9,53.7-13.9h26.7v-12.6c0-9.6-2.9-17.2-8.6-22.8-5.7-5.7-14.2-8.6-25.4-8.6s-18,2.5-24.6,7.4c-6.6,4.9-9.9,10.9-9.9,17.9h-27.6c0-8,2.8-15.7,8.5-23.1,5.7-7.5,13.5-13.4,23.1-17.8,9.8-4.3,20.5-6.5,32.2-6.5,18.5,0,33,4.6,43.5,13.9,10.5,9.2,15.9,21.9,16.3,38.1v73.9c0,14.7,1.9,26.5,5.6,35.2v2.4h-28.8ZM408.6,1800.2c8.6,0,16.8-2.2,24.5-6.7,7.7-4.5,13.3-10.2,16.8-17.4v-32.9h-21.5c-33.6,0-50.4,9.8-50.4,29.5s2.9,15.3,8.6,20.2c5.7,4.8,13.1,7.3,22.1,7.3h0ZM584.7,1801.7c9.8,0,18.3-3,25.7-8.9s11.4-13.3,12.2-22.2h26c-.5,9.2-3.7,17.9-9.5,26.3s-13.6,14.9-23.4,19.9c-9.7,4.9-20,7.4-30.9,7.4-21.9,0-39.3-7.3-52.2-21.8-12.9-14.6-19.3-34.6-19.3-59.9v-4.6c0-15.6,2.9-29.5,8.6-41.7,5.7-12.2,13.9-21.6,24.6-28.3,10.8-6.7,23.5-10.1,38.1-10.1s32.9,5.4,44.8,16.2c12,10.8,18.3,24.8,19.1,42h-26c-.8-10.4-4.7-18.9-11.9-25.5-7-6.7-15.7-10.1-26.1-10.1s-24.8,5-32.5,15.1c-7.6,10-11.4,24.5-11.4,43.5v5.2c0,18.5,3.8,32.7,11.4,42.7,7.6,10,18.5,15,32.6,15h0ZM716.5,1621.8v38.9h30v21.2h-30v99.5c0,6.4,1.3,11.3,4,14.5,2.7,3.2,7.2,4.8,13.6,4.8s7.5-.6,13-1.8v22.2c-7.2,2-14.2,3-21.1,3-12.3,0-21.5-3.7-27.7-11.1-6.2-7.4-9.3-17.9-9.3-31.6v-99.5h-29.2v-21.2h29.2v-38.9h27.4ZM1024.3,1821.1h-28.6l-108.7-166.4v166.4h-28.6v-216h28.6l109,167.2v-167.2h28.3v216ZM1169.7,1821.1c-1.6-3.2-2.9-8.8-3.9-16.9-12.8,13.2-28,19.9-45.7,19.9s-28.8-4.5-39-13.4c-10.1-9-15.1-20.4-15.1-34.1s6.3-29.7,19-38.9c12.8-9.3,30.7-13.9,53.7-13.9h26.7v-12.6c0-9.6-2.9-17.2-8.6-22.8-5.7-5.7-14.2-8.6-25.4-8.6s-18,2.5-24.6,7.4c-6.6,4.9-9.9,10.9-9.9,17.9h-27.6c0-8,2.8-15.7,8.5-23.1,5.7-7.5,13.5-13.4,23.1-17.8,9.8-4.3,20.5-6.5,32.2-6.5,18.5,0,33,4.6,43.5,13.9,10.5,9.2,15.9,21.9,16.3,38.1v73.9c0,14.7,1.9,26.5,5.6,35.2v2.4h-28.8ZM1124.1,1800.2c8.6,0,16.8-2.2,24.5-6.7,7.7-4.5,13.3-10.2,16.8-17.4v-32.9h-21.5c-33.6,0-50.4,9.8-50.4,29.5s2.9,15.3,8.6,20.2c5.7,4.8,13.1,7.3,22.1,7.3h0ZM1273.1,1621.8v38.9h30v21.2h-30v99.5c0,6.4,1.3,11.3,4,14.5,2.7,3.2,7.2,4.8,13.6,4.8s7.5-.6,13.1-1.8v22.2c-7.2,2-14.2,3-21.1,3-12.3,0-21.5-3.7-27.7-11.1-6.2-7.4-9.3-17.9-9.3-31.6v-99.5h-29.2v-21.2h29.2v-38.9h27.4ZM1365,1821.1h-27.4v-160.5h27.4v160.5ZM1335.4,1618c0-4.4,1.3-8.2,4-11.3,2.8-3.1,6.8-4.6,12.2-4.6s9.4,1.5,12.2,4.6,4.2,6.8,4.2,11.3-1.4,8.2-4.2,11.1c-2.8,3-6.8,4.5-12.2,4.5s-9.4-1.5-12.2-4.5c-2.7-3-4-6.7-4-11.1ZM1462,1783.9l39.7-123.3h28l-57.6,160.5h-20.9l-58.1-160.5h28l40.8,123.3ZM1620.7,1824.1c-21.8,0-39.5-7.1-53.1-21.4-13.6-14.3-20.5-33.5-20.5-57.4v-5c0-15.9,3-30.1,9-42.6,6.1-12.6,14.6-22.4,25.5-29.4,11-7.1,22.8-10.7,35.6-10.7,20.9,0,37.1,6.9,48.7,20.6,11.6,13.7,17.4,33.4,17.4,59v11.4h-108.7c.4,15.8,5,28.6,13.8,38.4,8.9,9.7,20.2,14.5,33.8,14.5s17.9-2,24.6-5.9,12.6-9.2,17.7-15.7l16.8,13.1c-13.5,20.7-33.6,31-60.5,31h0ZM1617.3,1680.2c-11.1,0-20.4,4.1-27.9,12.2-7.5,8-12.2,19.3-13.9,33.8h80.4v-2.1c-.8-13.9-4.5-24.7-11.3-32.3-6.7-7.7-15.8-11.6-27.3-11.6h0Z"/>
</svg>