<?xml version="1.0" encoding="utf-8"?>
<!-- Generator: Adobe Illustrator 25.0.1, SVG Export Plug-In . SVG Version: 6.00 Build 0)  -->
<svg version="1.1" id="Layer_1" xmlns="http://www.w3.org/2000/svg" xmlns:xlink="http://www.w3.org/1999/xlink" x="0px" y="0px"
	 viewBox="0 0 45.9 42" style="enable-background:new 0 0 45.9 42;" xml:space="preserve">
<style type="text/css">
	.st0{fill:#53C1DE;}
	.st1{fill-rule:evenodd;clip-rule:evenodd;fill:#53C1DE;}
</style>
<g>
	<path class="st0" d="M37.7,13.6L37.7,13.6c-0.5-0.2-1-0.3-1.5-0.5c0.1-0.3,0.2-0.7,0.2-1C37.6,6.5,36.9,2,34.4,0.5
		C32-0.9,28.1,0.6,24.1,4.1c-0.4,0.3-0.8,0.7-1.1,1.1c-0.2-0.2-0.5-0.5-0.8-0.7c-4.1-3.8-8.3-5.4-10.8-3.9C9,2,8.3,6.2,9.3,11.5
		c0.1,0.5,0.2,1,0.3,1.6c-0.6,0.2-1.2,0.4-1.7,0.5c-4.9,1.7-8,4.5-8,7.3c0,2.9,3.3,5.9,8.4,7.6c0.4,0.1,0.8,0.3,1.2,0.4
		c-0.1,0.6-0.3,1.1-0.4,1.7c-1,5.2-0.2,9.3,2.2,10.7c2.5,1.5,6.6,0,10.6-3.7c0.3-0.3,0.6-0.6,1-0.9c0.4,0.4,0.8,0.8,1.2,1.2
		c3.9,3.4,7.8,4.8,10.1,3.4c2.5-1.5,3.3-5.9,2.2-11.3c-0.1-0.4-0.2-0.8-0.3-1.3c0.3-0.1,0.6-0.2,0.9-0.3c5.3-1.8,8.7-4.7,8.7-7.6
		C45.9,18.1,42.7,15.4,37.7,13.6z M25.4,5.6c3.4-3,6.6-4.2,8-3.4v0c1.5,0.9,2.1,4.6,1.2,9.4c-0.1,0.3-0.1,0.6-0.2,0.9
		c-2-0.5-4.1-0.8-6.1-1c-1.3-1.8-2.6-3.5-3.9-5C24.7,6.3,25,6,25.4,5.6z M13.6,23.4c0.8,1.7,1.8,3.3,2.7,4.9c0,0,0,0,0,0h0
		c0,0,0,0,0,0c-1.4-0.2-2.8-0.4-4.2-0.7C12.5,26.1,13,24.7,13.6,23.4z M13.5,18.6c-0.6-1.3-1-2.7-1.5-4.1c1.4-0.3,2.8-0.6,4.2-0.7
		c-0.5,0.8-1,1.6-1.4,2.4C14.4,17,14,17.8,13.5,18.6z M14.6,21c0.6-1.3,1.3-2.6,2-3.8c0.7-1.2,1.4-2.5,2.2-3.6
		c2.8-0.2,5.6-0.2,8.4,0c0.8,1.2,1.5,2.4,2.2,3.6c0.7,1.2,1.4,2.5,2,3.8c-0.6,1.3-1.3,2.6-2,3.8h0c-0.7,1.2-1.4,2.5-2.2,3.7
		c-1.4,0.1-2.8,0.2-4.2,0.2c-1.4,0-2.8,0-4.2-0.1C17.2,26.1,15.8,23.6,14.6,21z M31.1,25.8c0.5-0.8,0.9-1.7,1.3-2.5
		c0.6,1.4,1.1,2.7,1.5,4.1c-1.4,0.3-2.8,0.6-4.3,0.8C30.1,27.4,30.6,26.6,31.1,25.8z M32.4,18.6c-0.4-0.8-0.9-1.6-1.3-2.5
		c-0.4-0.8-0.9-1.6-1.4-2.4c1.5,0.2,2.9,0.4,4.2,0.8C33.4,15.9,32.9,17.3,32.4,18.6z M23,8.1c1,1.1,1.9,2.2,2.7,3.4
		c-1.8-0.1-3.6-0.1-5.4,0C21.1,10.3,22,9.2,23,8.1z M12.4,2.3c1.5-0.9,4.9,0.4,8.5,3.7c0.2,0.2,0.5,0.4,0.7,0.7
		c-1.4,1.6-2.7,3.2-3.9,5c-2.1,0.2-4.1,0.5-6.1,1c-0.1-0.5-0.2-1-0.3-1.5v0C10.4,6.6,11,3.2,12.4,2.3z M10.2,27
		c-0.4-0.1-0.8-0.2-1.1-0.4h0c-2.2-0.8-4.1-1.8-5.4-2.9c-1.1-1-1.7-2-1.7-2.8c0-1.7,2.5-3.9,6.6-5.4c0.5-0.2,1-0.4,1.6-0.5
		c0.6,2,1.4,4,2.2,6C11.5,22.9,10.8,25,10.2,27z M20.8,36.2c-1.8,1.6-3.6,2.7-5.1,3.3c-1.4,0.5-2.5,0.5-3.2,0.1
		c-1.4-0.9-2-4.2-1.2-8.6c0.1-0.5,0.2-1,0.3-1.6c1.9,0.4,4,0.7,6.2,0.9c1.2,1.8,2.5,3.4,3.9,5C21.4,35.7,21.1,35.9,20.8,36.2z
		 M23,33.9c-1-1.1-1.9-2.2-2.8-3.4c0.9,0,1.8,0.1,2.7,0.1c0.9,0,1.9,0,2.8-0.1C24.9,31.7,24,32.8,23,33.9z M34.9,36.7
		c-0.3,1.5-0.8,2.5-1.5,2.9c-1.4,0.9-4.5-0.3-7.9-3.2c-0.4-0.3-0.8-0.7-1.2-1.1c1.3-1.5,2.6-3.1,3.8-5c2.2-0.2,4.3-0.5,6.2-1
		c0.1,0.4,0.2,0.8,0.2,1.1v0C35.2,32.9,35.2,35.1,34.9,36.7z M36.6,26.7c-0.3,0.1-0.5,0.2-0.8,0.2c-0.6-1.9-1.4-3.9-2.3-6
		c0.9-2,1.7-4,2.2-5.9c0.5,0.1,0.9,0.3,1.4,0.4c4.2,1.5,6.8,3.7,6.8,5.4C43.9,22.8,41.1,25.1,36.6,26.7z"/>
	<path class="st1" d="M22.9,16.7c2.3,0,4.1,1.9,4.1,4.2c0,2.3-1.8,4.2-4.1,4.2s-4.1-1.9-4.1-4.2C18.8,18.6,20.7,16.7,22.9,16.7"/>
</g>
</svg>
