<svg xmlns="http://www.w3.org/2000/svg" width="65" height="48" fill="none" viewBox="0 0 65 48">
    <g clip-path="url(#clip0)">
        <path fill="#CD6799" d="M55.107 27.589c-2.233.012-4.174.55-5.799 1.344-.596-1.18-1.192-2.232-1.297-3.004-.117-.9-.257-1.45-.117-2.525.14-1.076.772-2.607.76-2.724-.012-.117-.14-.666-1.426-.678-1.286-.012-2.397.245-2.526.585-.128.338-.374 1.11-.537 1.905-.222 1.169-2.572 5.342-3.916 7.528-.433-.853-.807-1.601-.889-2.197-.117-.9-.257-1.45-.117-2.525.14-1.076.772-2.607.76-2.724-.012-.117-.14-.667-1.426-.678-1.286-.012-2.397.245-2.525.584-.129.34-.27 1.134-.538 1.906-.269.771-3.39 7.739-4.209 9.539-.42.924-.783 1.66-1.04 2.163 0 0-.012.035-.047.093-.222.433-.35.667-.35.667v.011c-.176.316-.363.608-.456.608-.07 0-.199-.841.023-1.987.468-2.42 1.578-6.184 1.567-6.313 0-.07.21-.725-.725-1.064-.912-.339-1.24.222-1.321.222-.082 0-.14.2-.14.2s1.017-4.233-1.941-4.233c-1.847 0-4.396 2.023-5.658 3.846-.795.433-2.49 1.356-4.302 2.35-.69.386-1.403.772-2.07 1.134-.046-.047-.093-.105-.14-.152-3.577-3.823-10.193-6.523-9.913-11.655.105-1.87.748-6.78 12.707-12.742 9.844-4.852 17.676-3.507 19.032-.526 1.94 4.255-4.197 12.157-14.367 13.303-3.881.432-5.916-1.064-6.43-1.625-.538-.584-.62-.62-.818-.503-.328.176-.117.702 0 1.006.304.795 1.555 2.197 3.67 2.887 1.871.608 6.419.947 11.925-1.18 6.16-2.385 10.977-9.014 9.562-14.566C38.66.234 29.306-1.625 20.457 1.519 15.197 3.39 9.492 6.337 5.388 10.172.514 14.73-.258 18.693.058 20.352c1.134 5.892 9.258 9.726 12.508 12.567-.164.093-.316.175-.444.245-1.625.807-7.82 4.045-9.364 7.47-1.753 3.881.28 6.664 1.625 7.038 4.173 1.157 8.464-.924 10.767-4.36 2.303-3.438 2.022-7.903.958-9.95-.011-.023-.023-.046-.047-.07.421-.245.854-.502 1.275-.747.83-.491 1.648-.947 2.35-1.321-.398 1.087-.69 2.384-.83 4.255-.176 2.198.724 5.05 1.905 6.172.526.491 1.146.503 1.543.503 1.38 0 2-1.146 2.689-2.502.841-1.66 1.601-3.589 1.601-3.589s-.947 5.214 1.625 5.214c.935 0 1.882-1.216 2.303-1.835v.012s.024-.036.07-.117l.152-.246v-.023c.375-.655 1.216-2.14 2.467-4.606 1.613-3.18 3.168-7.155 3.168-7.155s.14.97.62 2.584c.28.947.865 1.987 1.332 2.993-.374.526-.608.818-.608.818l.012.012c-.304.397-.631.83-.993 1.25-1.275 1.52-2.794 3.262-3.005 3.765-.245.596-.187 1.028.28 1.38.34.256.948.291 1.567.256 1.146-.081 1.952-.362 2.35-.537.62-.223 1.344-.562 2.022-1.064 1.251-.924 2.011-2.245 1.94-3.987-.034-.958-.35-1.917-.736-2.817.117-.164.223-.327.34-.49 1.975-2.888 3.506-6.056 3.506-6.056s.14.97.62 2.583c.234.818.713 1.707 1.134 2.572-1.859 1.508-3.004 3.261-3.414 4.407-.736 2.128-.163 3.086.924 3.309.491.105 1.192-.13 1.707-.351.654-.21 1.426-.573 2.162-1.11 1.251-.924 2.455-2.21 2.385-3.952-.035-.795-.245-1.578-.538-2.338 1.579-.655 3.613-1.017 6.208-.713 5.564.654 6.663 4.126 6.453 5.588-.21 1.46-1.38 2.256-1.765 2.501-.386.246-.515.328-.48.503.047.257.234.245.562.199.456-.082 2.922-1.18 3.027-3.87.176-3.437-3.098-7.19-8.884-7.154zM12.18 42.06c-1.847 2.011-4.419 2.771-5.53 2.128-1.192-.69-.724-3.659 1.544-5.787 1.38-1.297 3.156-2.501 4.337-3.238.269-.163.666-.397 1.146-.69.082-.046.128-.07.128-.07l.28-.175c.83 3.04.036 5.717-1.905 7.832zm13.444-9.141c-.643 1.566-1.987 5.576-2.806 5.354-.701-.187-1.134-3.227-.14-6.231.503-1.508 1.567-3.308 2.186-4.01 1.006-1.122 2.116-1.496 2.385-1.04.339.596-1.227 4.945-1.625 5.927zm11.094 5.307c-.269.14-.526.234-.643.164-.082-.047.117-.234.117-.234s1.391-1.496 1.94-2.174c.316-.398.69-.866 1.088-1.392v.152c0 1.789-1.73 2.993-2.502 3.484zm8.557-1.952c-.198-.14-.163-.608.503-2.07.257-.572.865-1.53 1.906-2.454.116.374.198.736.187 1.075-.012 2.256-1.625 3.098-2.596 3.449z"/>
    </g>
    <defs>
        <clipPath id="clip0">
            <path fill="#fff" d="M0 0H64.039V48H0z"/>
        </clipPath>
    </defs>
</svg>
