<?xml version="1.0" encoding="UTF-8"?>
<svg id="Layer_1" xmlns="http://www.w3.org/2000/svg" version="1.1" viewBox="0 0 512 63.5">
  <!-- Generator: Adobe Illustrator 29.1.0, SVG Export Plug-In . SVG Version: 2.1.0 Build 142)  -->
  <defs>
    <style>
      .st0 {
        fill: #fff;
      }

      .st1 {
        fill: #38bdf8;
      }
    </style>
  </defs>
  <path class="st1" d="M52.9,0c-14.1,0-22.9,7.1-26.4,21.2,5.3-7.1,11.5-9.7,18.5-7.9,4,1,6.9,3.9,10.1,7.2,5.2,5.3,11.2,11.4,24.3,11.4s22.9-7.1,26.4-21.2c-5.3,7.1-11.5,9.7-18.5,7.9-4-1-6.9-3.9-10.1-7.2-5.2-5.3-11.2-11.4-24.3-11.4ZM26.5,31.7C12.3,31.7,3.5,38.8,0,52.9c5.3-7.1,11.5-9.7,18.5-7.9,4,1,6.9,3.9,10.1,7.2,5.2,5.3,11.2,11.4,24.3,11.4s22.9-7.1,26.4-21.2c-5.3,7.1-11.5,9.7-18.5,7.9-4-1-6.9-3.9-10.1-7.2-5.2-5.3-11.2-11.4-24.3-11.4Z"/>
  <path class="st0" d="M158.7,26.7h-9.2v17.9c0,4.8,3.1,4.7,9.2,4.4v7.2c-12.4,1.5-17.3-1.9-17.3-11.6v-17.9h-6.9v-7.7h6.9v-10l8-2.4v12.4h9.2v7.7ZM193.9,19h8v37.2h-8v-5.4c-2.8,3.9-7.2,6.3-13,6.3-10.1,0-18.5-8.6-18.5-19.6s8.4-19.6,18.5-19.6,10.2,2.4,13,6.3v-5.3ZM182.1,49.5c6.7,0,11.8-5,11.8-11.9s-5.1-11.9-11.8-11.9-11.8,5-11.8,11.9,5.1,11.9,11.8,11.9h0ZM215.3,13.4c-2.8,0-5.1-2.4-5.1-5.1,0-2.8,2.3-5.1,5.1-5.1,2.8,0,5.1,2.3,5.1,5.1,0,2.8-2.3,5.1-5.1,5.1ZM211.3,56.2V19h8v37.2h-8ZM228.6,56.2V1.9h8v54.3h-8ZM288.9,19h8.5l-11.7,37.2h-7.9l-7.7-25.1-7.8,25.1h-7.9l-11.7-37.2h8.5l7.2,25.7,7.8-25.7h7.7l7.7,25.7,7.3-25.7ZM307.3,13.4c-2.8,0-5.1-2.4-5.1-5.1,0-2.8,2.3-5.1,5.1-5.1,2.8,0,5.1,2.3,5.1,5.1,0,2.8-2.3,5.1-5.1,5.1ZM303.3,56.2V19h8v37.2h-8ZM340.2,18c8.3,0,14.3,5.7,14.3,15.3v22.9h-8v-22c0-5.7-3.3-8.6-8.3-8.6s-9.5,3.1-9.5,10.7v20h-8V19h8v4.8c2.5-3.9,6.5-5.7,11.5-5.7h0ZM392.7,4.1h8v52.1h-8v-5.4c-2.8,3.9-7.2,6.3-13,6.3-10.1,0-18.5-8.6-18.5-19.6s8.4-19.6,18.5-19.6,10.2,2.4,13,6.3V4.1ZM380.9,49.5c6.7,0,11.8-5,11.8-11.9s-5.1-11.9-11.8-11.9-11.8,5-11.8,11.9,5.1,11.9,11.8,11.9ZM427.6,57.2c-11.2,0-19.7-8.6-19.7-19.6s8.4-19.6,19.7-19.6,13.6,3.8,16.6,9.6l-6.9,4c-1.6-3.5-5.3-5.7-9.8-5.7-6.6,0-11.5,5-11.5,11.7s5,11.7,11.5,11.7,8.1-2.3,9.9-5.7l6.9,3.9c-3.1,5.9-9.5,9.7-16.8,9.7h0ZM457.7,29.3c0,6.8,20,2.7,20,16.5s-6.5,11.5-14.5,11.5-12.8-3.3-15.2-8.7l6.9-4c1.2,3.3,4.2,5.4,8.3,5.4s6.3-1.2,6.3-4.2c0-6.6-20-2.9-20-16.2s6-11.4,13.6-11.4,11.2,2.8,13.8,7.7l-6.8,3.8c-1.3-2.9-3.9-4.2-7-4.2s-5.4,1.3-5.4,3.9h0ZM492,29.3c0,6.8,20,2.7,20,16.5s-6.5,11.5-14.5,11.5-12.8-3.3-15.2-8.7l6.9-4c1.2,3.3,4.2,5.4,8.3,5.4s6.3-1.2,6.3-4.2c0-6.6-20-2.9-20-16.2s6-11.4,13.6-11.4,11.2,2.8,13.8,7.7l-6.8,3.8c-1.3-2.9-3.9-4.2-7-4.2s-5.4,1.3-5.4,3.9h0Z"/>
</svg>