<?xml version="1.0" encoding="utf-8"?>
<!-- Generator: Adobe Illustrator 25.0.1, SVG Export Plug-In . SVG Version: 6.00 Build 0)  -->
<svg version="1.1" id="Layer_1" xmlns="http://www.w3.org/2000/svg" xmlns:xlink="http://www.w3.org/1999/xlink" x="0px" y="0px"
	 viewBox="0 0 177.7 216.8" style="enable-background:new 0 0 177.7 216.8;" xml:space="preserve">
<style type="text/css">
	.st0{fill:#FFFFFF;}
</style>
<g>
	<path class="st0" d="M173.2,47.2c-3.4,4.3-7,7.4-10.4,10.8c-2.7,2.7-5.8,5-8.5,7.7c-5.6,5.5-11.1,11.1-16.7,16.5
		c-9.2,8.9-18.4,17.8-27.7,26.7c-9.1,8.8-18.2,17.5-27.3,26.3c-8.9,8.5-17.7,17.1-26.6,25.6c-1.4,1.3-3.1,2.2-5.3,3.7
		c-1.2-3.3-2.4-5.8-3-8.5c-3.9-15.9-7.7-31.9-11.6-47.8C29.3,81,22.5,53.8,15.8,26.6c-1.9-7.6-3.7-15.1-5.5-22.7
		c-0.8-3.2,0.5-4.5,3.6-3.7c7.2,2,14.3,4.1,21.5,6.2c13.7,3.9,27.5,7.7,41.2,11.7c16.1,4.6,32.2,9.4,48.3,14
		c12.8,3.7,25.6,7.2,38.3,10.9C166.3,44,169.6,44.6,173.2,47.2z M52.9,156.6C61.5,149.5,69,142,76.6,134
		c-11.3-4.4-27.2-8.7-31.4-8.3C47.8,136,50.3,146.2,52.9,156.6z M112.2,100.3c8.1-8,15.8-15.5,23.8-23.3c-10.4-3-20.6-5.9-31.7-9.1
		C107,78.8,109.5,89,112.2,100.3z M107.5,101.2c-2.8-11.2-5.4-21.4-8-31.8c-6.5,5.1-20.5,19.3-22.8,23
		C86.7,95.2,96.6,98.1,107.5,101.2z M23.4,38c8.4-8.2,16-15.7,23.9-23.4c-10.7-3-20.8-5.9-31.6-8.9C18.3,16.7,20.8,26.9,23.4,38z
		 M165,48.6c-10.4-2.6-20.4-6.3-31.2-8.6c2.7,10.9,5,21.2,8.2,32.3C150,64,157.4,56.4,165,48.6z M60.2,58.1
		c-8,7.7-15.6,15-23.7,22.7c10.8,3.1,21,6,32,9.2C65.5,79,63.4,68.6,60.2,58.1z M33.3,77.2c8.3-7.9,15.9-15.2,23.9-22.8
		c-10.8-3.1-21.1-6-31.9-9.1C28,56.1,30.6,66.3,33.3,77.2z M94.3,28.2c2.8,11,5.3,21.2,7.9,31.3c7.6-7.8,14.9-15.2,22.1-22.5
		C114.9,34.2,105,31.3,94.3,28.2z M27.1,40.8C38,43.9,48,46.6,58.2,49.5c-2.5-10.4-4.9-20.4-7.4-30.8C42.2,25.3,35.2,32.8,27.1,40.8
		z M43,117.2c8.1-7.9,15.6-15.1,23.6-22.7c-10.7-3.1-20.8-6-31.1-9C37.9,96.1,40.3,106.1,43,117.2z M70.1,97
		c-7.4,8-14.5,15.6-21.8,23.4c9.4,2.7,19.3,5.6,29.5,8.5C75.2,118.1,72.7,107.9,70.1,97z M65.2,56.7c2.7,11.1,5.1,20.9,7.5,31
		c8.7-7,16-14.4,23.5-22.2C85.8,62.5,76,59.7,65.2,56.7z M129.2,41.1c-8.3,7.3-16.2,14.3-23.4,22.4c5.3,1.5,10.2,2.8,15.2,4.2
		c5,1.4,9.8,3.4,15.7,4.1C134,61.2,131.6,51.4,129.2,41.1z M106.1,105.8c-10.9-3.1-20.6-5.9-31.2-9c2.7,10.9,5.2,20.7,7.8,31.1
		C91.4,121.3,97.8,113.5,106.1,105.8z M62.9,47.6c2.6-1.2,19-16.3,23.4-21.5c-10.3-3-20.3-5.9-31-9C57.9,27.7,60.4,37.6,62.9,47.6z
		 M89.8,29.2c-8,7.9-15.3,15.1-23,22.7c10.2,3,20.1,5.9,30.7,9C94.9,50.3,92.5,40.4,89.8,29.2z"/>
	<path class="st0" d="M29.4,179.8c1.8-0.9,2.8-1.4,3.8-1.9c6.6-2.9,13,0,14.3,7.2c0.9,5.2,0.5,10.5,0.6,15.8c0,0.9-0.5,2.6-1.1,3.1
		c-0.8,0.6-2,0.6-2.9,0.4c-0.7-0.1-1.4-1.4-1.6-2.2c-0.3-1.3-0.1-2.6-0.1-4c0-3.5,0.1-7,0-10.5c-0.2-4.5-3.1-6.6-7.3-5.3
		c-4.4,1.4-5.5,2.9-5.6,7.5c0,3.3,0.1,6.6,0,10c-0.1,2.5-0.1,4.6-3.1,4.6s-3-2.3-3-4.5c0-10.1,0-20.3,0-30.4c0-0.3,0-0.7,0-1
		c0.2-1.7,1.1-2.7,2.9-2.8c1.8-0.1,2.9,0.9,3,3.1C29.5,172.4,29.4,175.7,29.4,179.8z"/>
	<path class="st0" d="M107,193c2,5.1,3,6,7.6,5.9c2.3,0,4.6-0.5,6.8-0.9c1.6-0.3,3.1-0.1,3.7,1.6c0.7,1.8-0.6,2.7-2,3.4
		c-5.6,2.7-11.2,2.7-16.7-0.2c-1.1-0.6-2.2-1.6-2.8-2.7c-3.8-6.2-3.7-12.4,0-18.7c3.7-6.4,16.7-6.9,20.9,1.5
		c0.8,1.6,1.4,3.4,1.8,5.1c0.6,2.8-0.3,5-3.8,4.8c-3.8-0.1-7.6,0-11.5,0C109.7,193,108.4,193,107,193z M106.7,187.9
		c4.9-0.2,9.2,0.6,13.5-0.5c-0.8-3.8-3.1-5.2-6.5-5.4C109.9,181.8,108.2,184.1,106.7,187.9z"/>
	<path class="st0" d="M77.7,193.3c0.6,4,2.9,5.6,6.2,5.6c2.6,0,5.3-0.4,7.9-0.6c0.8-0.1,1.8-0.4,2.4-0.1c0.8,0.4,1.8,1.2,1.9,1.9
		c0.1,0.7-0.5,2.1-1.1,2.4c-5.9,3.2-12,3.7-18,0.2c-4.3-2.5-6.8-9.6-5.2-15.1c0.7-2.5,2-4.9,3.5-7c3.2-4.5,8.1-4.2,12.7-3.5
		c4.5,0.7,6.7,4.5,8.4,8.5c0.2,0.6,0.2,1.3,0.4,2c0.8,3.6-0.4,5.3-4.1,5.4c-3.5,0.1-7,0-10.5,0C80.8,193,79.3,193.2,77.7,193.3z
		 M77.6,187.7c4.8,0.2,9.1,0.6,13.9-0.4c-2.1-3.3-4-5.8-7.9-5.3C80.5,182.4,78.4,183.8,77.6,187.7z"/>
	<path class="st0" d="M162.8,182.4c-1.2,0.7-1.2,3.2-0.5,3.8c1.1,1.1,2.5,1.2,4.4,1.8c2.6,0.9,5.4,1.7,7.6,3.4
		c6,4.5,3.2,10.1-2,12.4c-4.8,2.1-9.7,1.8-14.3-1c-1.1-0.7-2.5-1.3-1.9-3.1c0.6-1.8,2-1.8,3.6-1.6c2.9,0.4,4.8,1.3,7.7,1.6
		c1.2,0.1,1.9-0.5,2.5-1.1c0.7-1,0.7-2.4-0.2-3.2c-0.2-0.1-0.3-0.3-0.5-0.3c-2.5-0.9-5.1-1.4-7.5-2.4c-3-1.2-5.4-3.1-5.4-6.9
		c0.1-5.2,3-8.6,8.2-8.6c3.1,0,6.2,0.5,9.3,1c1.6,0.2,2.9,1.2,2.4,3.1c-0.5,1.8-2,2.1-3.6,1.9c-1.1-0.1-2.1-0.5-3.4-0.8
		C166.5,181.5,165,181.1,162.8,182.4z"/>
	<path class="st0" d="M11.5,182.4c0,5-0.1,9.8,0,14.6c0.1,2.5,1,3,3.6,2.6c0.3,0,0.6-0.3,0.9-0.3c1.5-0.4,2.7,0.2,3.2,1.6
		c0.5,1.5-0.5,2.4-1.7,3.2c-5.2,3-11.6-0.4-12-6.5c-0.2-3.3,0-6.6-0.1-10c0-1.6,0-3.8,0-5.5c-1.9-0.2-3.1-0.1-5.4-0.3
		c3.6-3.4,7.8-6.7,11.3-10c0.2,1.6,0.2,4.3,0.2,5.2c1.9,0.1,4.5-0.2,6.1,0.4c1,0.3,1.4,0.5,1.4,2.4c0,1.8-0.9,2.1-1.9,2.4
		C15.8,182.4,13.4,182.2,11.5,182.4z"/>
	<path class="st0" d="M137.6,215.1c-0.8-0.8-0.6-2.6,0.2-3.5c1.1-1.3,2.2-0.5,3.1-0.3c3.4,0.7,3.5-0.3,3.5-3.5
		c0.1-7.5,0-14.9,0-22.4c0-1.3-0.1-2.7,0.1-4c0.2-1.1,0.5-2.4,1.2-3.1c0.7-0.7,2-1.2,3-1c0.7,0.1,1.2,1.4,1.7,2.2
		c0.2,0.4,0.1,1,0.1,1.5c0,9.3,0,18.6,0,27.9c0,2.9-1.3,5-3.3,6.9c-1.9,1.7-4.1,1.5-6.1,1C140.1,216.6,138.5,216,137.6,215.1z"/>
	<path class="st0" d="M60,180c0.6-0.4,3.6-2.3,4.9-2.6c1.4-0.4,3-0.6,4.3-0.2c0.8,0.2,1.6,1.6,1.8,2.6c0.1,0.6-1,1.6-1.7,2
		c-1.3,0.6-2.9,0.7-4.3,1.2c-2.9,1.1-4.7,2.9-4.5,6.3c0.1,3.5,0.1,7,0,10.5c-0.1,2.9-0.4,5-3.1,5s-2.9-2.4-2.9-4.6
		c0-6.1,0-12.3,0-18.4c0-2,0.7-3.9,2.6-4.3C58.2,177.1,59.8,178,60,180z"/>
	<path class="st0" d="M130.5,200.8c0-1.7,2-3.4,3.6-3.6c1.6-0.2,3.6,1.5,3.6,3.6c0,2.2-1.1,3.6-3.6,3.6
		C132.1,204.4,130.5,202.5,130.5,200.8z"/>
	<path class="st0" d="M149.8,167.7c0.8,0.8,1.1,2.2,0.7,3.2c-0.6,1.3-1.6,2.2-3.4,2c-1.5-0.1-2.5-1.6-2.6-3c0-1.4,0.8-2.4,1.7-2.8
		C147.5,166.5,148.8,166.7,149.8,167.7z"/>
</g>
</svg>
