<?xml version="1.0" encoding="UTF-8"?>
<svg id="Layer_1" xmlns="http://www.w3.org/2000/svg" version="1.1" viewBox="0 0 800 800">
  <!-- Generator: Adobe Illustrator 29.1.0, SVG Export Plug-In . SVG Version: 2.1.0 Build 142)  -->
  <defs>
    <style>
      .st0 {
        fill: #fff;
      }

      .st1 {
        fill: #007acc;
      }
    </style>
  </defs>
  <polygon class="st1" points="0 400 0 800 800 800 800 0 0 0 0 400"/>
  <path class="st0" d="M644.6,368.1c20.3,5.1,35.8,14.2,50.1,28.9,7.3,7.8,18.2,22.1,19.2,25.7.3,1-34.5,24.4-55.6,37.4-.8.5-3.9-2.7-7.3-7.8-10.3-15-21.1-21.5-37.6-22.7-24.2-1.6-39.8,11.1-39.7,32.3,0,5.2,1,10.4,3.4,15,5.4,11.1,15.4,17.7,46.4,31.1,57.3,24.6,81.8,40.9,97,63.9,17,25.8,20.8,66.9,9.4,97.7-12.8,33.2-44.3,55.8-88.5,63.3-13.7,2.5-46.2,2.1-60.9-.6-32.1-5.7-62.6-21.6-81.4-42.4-7.4-8.1-21.8-29.3-20.8-30.7.4-.5,3.6-2.6,7.3-4.7s17-9.9,29.7-17.2l23.1-13.4,4.8,7.1c6.8,10.3,21.5,24.4,30.4,29,25.5,13.5,60.6,11.6,77.9-3.9,7-5.8,10.9-14.8,10.4-24,0-9.3-1.2-13.4-6-20.3-6.2-8.9-18.9-16.4-54.9-32-41.3-17.9-59.1-28.8-75.3-46.4-10.2-11.6-17.7-25.3-22-40-3-11.3-3.8-39.7-1.4-51,8.5-40,38.7-67.7,82-75.9,14.1-2.7,46.9-1.7,60.7,1.7h-.4Z"/>
  <path class="st0" d="M456.9,401.6l.3,32.7h-104.2v296h-73.7v-296h-104v-32c0-17.8.4-32.7.9-33.1.4-.5,63.7-.8,140.5-.7l139.8.4.4,32.7h0Z"/>
</svg>