<?xml version="1.0" encoding="utf-8"?>
<!-- Generator: Adobe Illustrator 25.0.1, SVG Export Plug-In . SVG Version: 6.00 Build 0)  -->
<svg version="1.1" id="Layer_1" xmlns="http://www.w3.org/2000/svg" xmlns:xlink="http://www.w3.org/1999/xlink" x="0px" y="0px"
	 viewBox="0 0 31 44" style="enable-background:new 0 0 31 44;" xml:space="preserve">
<style type="text/css">
	.st0{fill:none;}
	.st1{fill-rule:evenodd;clip-rule:evenodd;fill:#2062AF;}
	.st2{fill-rule:evenodd;clip-rule:evenodd;fill:#3C9CD7;}
	.st3{fill:#FFFFFF;}
	.st4{fill-rule:evenodd;clip-rule:evenodd;fill:#FFFFFF;}
	.st5{fill-rule:evenodd;clip-rule:evenodd;fill:url(#SVGID_1_);}
	.st6{fill-rule:evenodd;clip-rule:evenodd;fill:url(#SVGID_2_);}
	.st7{fill-rule:evenodd;clip-rule:evenodd;fill:url(#SVGID_3_);}
	.st8{opacity:5.000000e-02;enable-background:new    ;}
	.st9{fill-rule:evenodd;clip-rule:evenodd;fill:url(#SVGID_4_);}
	.st10{opacity:5.000000e-02;fill-rule:evenodd;clip-rule:evenodd;enable-background:new    ;}
</style>
<g>
	<path class="st0" d="M-9-3h49v49H-9V-3z"/>
	<path class="st1" d="M28,39.9l-12.5,3.4L3,39.9L0.1,8.8h30.9L28,39.9z"/>
	<path class="st2" d="M15.5,11.5v29l0,0l10.3-2.7l2.4-26.3L15.5,11.5z"/>
	<path class="st3" d="M8.4,4.3V2.6h2.7V0.6H6.4v5.4h4.7V4.3H8.4z M16,2.6h1.9V0.6h-4.7v1.9c0.6,0.6,1,0.9,1.9,1.8l-1.9,0v1.8h4.7
		V4.3C17.9,4.3,16,2.6,16,2.6z M22.7,2.6h1.9V0.6h-4.7v1.9c0.6,0.6,1,0.9,1.9,1.8l-1.9,0v1.8h4.7V4.3C24.6,4.3,22.7,2.6,22.7,2.6z"
		/>
	<path class="st4" d="M15.2,19l-8.8,3.6L6.7,26l8.5-3.5l9-3.8l0.4-3.6L15.2,19z"/>
	
		<linearGradient id="SVGID_1_" gradientUnits="userSpaceOnUse" x1="-250.4222" y1="386.9311" x2="-250.4222" y2="387.9311" gradientTransform="matrix(9.074 0 0 -7.26 2283.2942 2835.1567)">
		<stop  offset="0.387" style="stop-color:#D1D3D4;stop-opacity:0"/>
		<stop  offset="1" style="stop-color:#D1D3D4"/>
	</linearGradient>
	<path class="st5" d="M6.4,22.4L6.7,26l8.8-3.6v-3.6L6.4,22.4z"/>
	
		<linearGradient id="SVGID_2_" gradientUnits="userSpaceOnUse" x1="-250.4222" y1="386.9235" x2="-250.4222" y2="387.9235" gradientTransform="matrix(9.074 0 0 -7.259 2292.3684 2831.0842)">
		<stop  offset="0.387" style="stop-color:#D1D3D4;stop-opacity:0"/>
		<stop  offset="1" style="stop-color:#D1D3D4"/>
	</linearGradient>
	<path class="st6" d="M24.6,15.1l-9.1,3.8v3.5l8.7-3.7L24.6,15.1z"/>
	
		<linearGradient id="SVGID_3_" gradientUnits="userSpaceOnUse" x1="-265.6436" y1="413.0774" x2="-264.6436" y2="413.0774" gradientTransform="matrix(17.241 0 0 -13.612 4586.3872 5652.0229)">
		<stop  offset="0" style="stop-color:#E8E7E5"/>
		<stop  offset="1" style="stop-color:#FFFFFF"/>
	</linearGradient>
	<path class="st7" d="M6.4,22.4L6.7,26l12.8,0l-0.3,4.8L15,32L11,31l-0.2-3H7l0.5,5.7l7.6,2.3l7.6-2.2l1-11.4
		C23.7,22.4,6.4,22.4,6.4,22.4z"/>
	<path class="st8" d="M15.5,22.4H6.4L6.7,26l8.8,0C15.5,26,15.5,22.4,15.5,22.4z M15.5,32L15.5,32l-4.3-1l-0.3-3H7l0.5,5.7l8,2.3V32
		L15.5,32z"/>
	
		<linearGradient id="SVGID_4_" gradientUnits="userSpaceOnUse" x1="-267.2015" y1="332.4724" x2="-266.2015" y2="332.4724" gradientTransform="matrix(19.056 0 0 -3.63 5097.3101 1223.8383)">
		<stop  offset="0" style="stop-color:#E8E7E5"/>
		<stop  offset="1" style="stop-color:#FFFFFF"/>
	</linearGradient>
	<path class="st9" d="M5.5,15.1h19.1l-0.4,3.6H6L5.5,15.1L5.5,15.1z"/>
	<path class="st10" d="M15.5,15.1h-10L6,18.8h9.5V15.1z"/>
</g>
</svg>
