<?xml version="1.0" encoding="UTF-8"?>
<svg id="layer" xmlns="http://www.w3.org/2000/svg" version="1.1" viewBox="0 0 570 202.1">
  <!-- Generator: Adobe Illustrator 29.1.0, SVG Export Plug-In . SVG Version: 2.1.0 Build 142)  -->
  <defs>
    <style>
      .st0 {
        fill: #0acf83;
      }

      .st1 {
        fill: #ff7262;
      }

      .st2 {
        fill: #fff;
      }

      .st3 {
        fill: #1abcfe;
      }

      .st4 {
        fill: #f24e1e;
      }

      .st5 {
        fill: #a259ff;
      }
    </style>
  </defs>
  <path class="st2" d="M206.5,38v101.8h13.1c0,.1,0-48.4,0-48.4h31.6v-12.8h-31.6v-27.8h41.1v-12.8h-54.2ZM284.3,58.7c4.7,0,8.6-3.8,8.6-8.6s-3.8-8.6-8.6-8.6-8.6,3.8-8.6,8.6,3.8,8.6,8.6,8.6h0ZM277.6,71.5v68.4h13.1v-68.4h-13.1ZM339.3,69.5c-17.4,0-29.5,14.7-29.5,32.2s12.1,32.2,29.5,32.2,14.5-3,19.3-8.1v9.1c.1,11.3-8.9,20.7-20.3,20.8h-.2c-4.2,0-8.3-1.6-11.6-3.9l-6.6,11.4c15.6,10.1,36.4,5.6,46.4-10,3.5-5.5,5.4-11.8,5.4-18.3v-63.3h-13.1v6.1c-4.8-5.1-11.3-8.2-19.3-8.2h0ZM322.9,101.7c0-10.9,8.3-19.4,17.9-19.4s17.8,8.6,17.8,19.4-8.3,19.3-17.8,19.3-17.9-8.5-17.9-19.3ZM418.9,82.3c-7.8.1-14.1,6.5-14,14.3v43.2h-13.1v-68.4h13.1v6.3c4-5.3,10.2-8.3,16.9-8.2,9.2,0,16.3,4.5,20.3,11.5,4.6-7.1,12.4-11.4,20.8-11.5,14.9,0,24.2,12,24.2,26.9v43.4h-13v-43.2c0-7.8-6.2-14.2-14-14.3-7.8.1-14.1,6.5-14,14.3v43.2h-13.2v-43.2c0-7.8-6.2-14.2-14-14.3h0ZM556.9,79.2c-6-6.3-14.4-9.8-23.1-9.7-19.5,0-33.3,16.5-33.3,36.1s13.8,36.1,33.3,36.1,17-3.5,23.1-9.7v7.8h13.1v-68.4h-13.1v7.8h0ZM513.6,105.6c0-13,10-23.4,21.7-23.4,11.6,0,21.6,10.4,21.6,23.4s-10,23.3-21.7,23.3c-11.5.1-21.6-10.2-21.6-23.3Z"/>
  <path id="b" class="st3" d="M67.3,101.1c0-18.6,15.1-33.7,33.7-33.7s33.7,15.1,33.7,33.7-15.1,33.7-33.7,33.7-33.7-15.1-33.7-33.7Z"/>
  <path id="c" class="st0" d="M0,168.4c0-18.6,15.1-33.7,33.7-33.7h33.7v33.7c0,18.6-15.1,33.7-33.7,33.7S0,187,0,168.4Z"/>
  <path id="d" class="st1" d="M67.3,0v67.3h33.7c18.6,0,33.7-15.1,33.7-33.7S119.6,0,101,0h-33.7Z"/>
  <path id="e" class="st4" d="M0,33.8c0,18.6,15.1,33.7,33.7,33.7h33.7V.2h-33.7C15.1,0,0,15.2,0,33.8Z"/>
  <path id="e1" data-name="e" class="st5" d="M0,101.1c0,18.6,15.1,33.7,33.7,33.7h33.7v-67.3h-33.7c-18.6-.1-33.7,15-33.7,33.6Z"/>
</svg>