<?xml version="1.0" encoding="utf-8"?>
<!-- Generator: Adobe Illustrator 25.0.1, SVG Export Plug-In . SVG Version: 6.00 Build 0)  -->
<svg version="1.1" id="Layer_1" xmlns="http://www.w3.org/2000/svg" xmlns:xlink="http://www.w3.org/1999/xlink" x="0px" y="0px"
	 viewBox="0 0 29 43" style="enable-background:new 0 0 29 43;" xml:space="preserve">
<style type="text/css">
	.st0{fill-rule:evenodd;clip-rule:evenodd;fill:#E44D26;}
	.st1{fill-rule:evenodd;clip-rule:evenodd;fill:#F16529;}
	.st2{fill:#EBEBEB;}
	.st3{fill:#FFFFFF;}
</style>
<g>
	<path class="st0" d="M2.7,39.5l-2.6-31H29l-2.6,31L14.5,43L2.7,39.5z"/>
	<path class="st1" d="M14.5,40.3l9.6-2.8L26.3,11H14.5V40.3z"/>
	<path class="st2" d="M14.5,22.5H9.7l-0.3-3.9h5.1v-3.8H5.4l0.1,1l0.9,10.5h8.1C14.5,26.3,14.5,22.5,14.5,22.5z M14.5,32.4
		L14.5,32.4l-4-1.1l-0.3-3H6.6l0.5,6l7.4,2.2l0,0L14.5,32.4L14.5,32.4z"/>
	<path class="st3" d="M2.7,0h1.8v1.9h1.7V0h1.8v5.8H6.3V3.9H4.6v1.9H2.7L2.7,0L2.7,0z M10.5,2H8.9V0H14V2h-1.6v3.9h-1.8L10.5,2
		L10.5,2z M14.8,0h1.9l1.2,2l1.2-2H21v5.8h-1.8V3L17.9,5h0L16.6,3v2.9h-1.8L14.8,0L14.8,0z M21.9,0h1.8v3.9h2.6v1.9h-4.4L21.9,0
		L21.9,0z"/>
	<path class="st3" d="M14.5,22.5v3.8H19l-0.4,4.9l-4,1.1v4l7.4-2.2l0.1-0.6l0.9-10l0.1-1C22.9,22.5,14.5,22.5,14.5,22.5z M14.5,14.8
		v3.8h8.7l0.1-0.9l0.2-1.9l0.1-1C23.6,14.8,14.5,14.8,14.5,14.8z"/>
</g>
</svg>
