<svg xmlns="http://www.w3.org/2000/svg" width="97" height="32" fill="none"><g clip-path="url(#clip0)"><path fill="#fff" d="M49.352 4.176h3.57v17.67c0 4.66-2.124 7.912-7.048 7.912-1.852 0-3.298-.307-4.292-.66v-3.384c1.084.44 2.395.66 3.704.66 3.027 0 4.066-1.759 4.066-4.308V4.176zm10.12-1.363c1.4 0 2.395.835 2.395 2.33 0 1.45-.994 2.33-2.395 2.33-1.4 0-2.394-.836-2.394-2.33 0-1.45.994-2.33 2.394-2.33zm-1.761 7.429h3.433v19.34h-3.433v-19.34zm11.925 19.34h-3.343v-19.34h3.343v3.384c1.175-2.285 3.162-3.912 7.047-3.692v3.253c-4.382-.44-7.047.835-7.047 4.967v11.428zm23.085-3.472c-1.264 2.55-3.659 3.868-6.73 3.868-5.287 0-7.952-4.352-7.952-10.066 0-5.45 2.801-10.066 8.358-10.066 2.891 0 5.15 1.275 6.324 3.78v-3.384h3.434v19.34H92.72V26.11zm-5.827.791c3.072 0 5.782-1.89 5.782-6.198v-1.538c0-4.308-2.484-6.198-5.42-6.198-3.84 0-5.829 2.462-5.829 6.945.045 4.66 1.943 6.99 5.467 6.99zM31.643 0H16.012c0 3.78 3.162 6.857 7.047 6.857h2.892v2.681c0 3.78 3.162 6.858 7.047 6.858V1.319C32.998.57 32.411 0 31.643 0z"/><path fill="url(#paint0_linear)" d="M23.692 7.78H8.06c0 3.78 3.162 6.857 7.047 6.857H18v2.682c0 3.78 3.163 6.857 7.048 6.857V9.099c0-.703-.588-1.319-1.355-1.319z"/><path fill="url(#paint1_linear)" d="M15.74 15.604H.11c0 3.78 3.162 6.858 7.047 6.858h2.891v2.681c0 3.78 3.163 6.857 7.048 6.857V16.923c0-.747-.633-1.318-1.356-1.318z"/></g><defs><linearGradient id="paint0_linear" x1="24.715" x2="18.256" y1="7.818" y2="14.663" gradientUnits="userSpaceOnUse"><stop offset=".176" stop-color="#fff" stop-opacity=".4"/><stop offset="1" stop-color="#fff"/></linearGradient><linearGradient id="paint1_linear" x1="17.198" x2="9.718" y1="15.655" y2="23.134" gradientUnits="userSpaceOnUse"><stop offset=".176" stop-color="#fff" stop-opacity=".4"/><stop offset="1" stop-color="#fff"/></linearGradient><clipPath id="clip0"><path fill="#fff" d="M0 0h96.842v32H0z" transform="translate(.11)"/></clipPath></defs></svg>