<svg xmlns="http://www.w3.org/2000/svg" width="79" height="48" fill="none"><path fill="#679E63" d="M38.737 48c-.258 0-.515-.067-.742-.198l-2.363-1.398c-.353-.197-.181-.268-.064-.309.471-.163.565-.2 1.068-.485.053-.03.122-.018.176.014l1.816 1.077a.226.226 0 00.22 0l7.077-4.085a.222.222 0 00.108-.191v-8.168a.228.228 0 00-.11-.195l-7.074-4.081a.213.213 0 00-.218 0l-7.072 4.083a.226.226 0 00-.112.193v8.168a.22.22 0 00.112.19l1.938 1.119c1.052.526 1.695-.094 1.695-.716v-8.065c0-.113.092-.203.206-.203h.898c.112 0 .206.09.206.203v8.065c0 1.403-.766 2.21-2.096 2.21-.41 0-.732 0-1.63-.444l-1.857-1.068a1.494 1.494 0 01-.742-1.291v-8.168c0-.531.283-1.026.742-1.29l7.078-4.088a1.548 1.548 0 011.488 0l7.078 4.088c.459.266.744.76.744 1.29v8.168c0 .531-.285 1.024-.744 1.291l-7.078 4.086c-.228.13-.485.198-.748.198z"/><path fill="#679E63" d="M40.924 42.371c-3.097 0-3.745-1.42-3.745-2.614 0-.114.09-.204.203-.204h.915c.102 0 .187.072.203.173.139.932.55 1.402 2.424 1.402 1.492 0 2.126-.337 2.126-1.129 0-.455-.18-.794-2.498-1.022-1.937-.191-3.134-.62-3.134-2.169 0-1.428 1.203-2.28 3.223-2.28 2.267 0 3.389.787 3.53 2.475a.205.205 0 01-.205.224h-.918a.203.203 0 01-.198-.16c-.22-.98-.757-1.293-2.211-1.293-1.628 0-1.818.567-1.818.992 0 .516.223.664 2.422.955 2.175.287 3.208.694 3.208 2.223 0 1.545-1.284 2.427-3.527 2.427zm10.205-8.565c0 .75-.613 1.364-1.364 1.364a1.367 1.367 0 01-1.365-1.364c0-.773.636-1.365 1.365-1.365.737 0 1.364.592 1.364 1.365zm-2.507-.004c0 .636.512 1.148 1.14 1.148.637 0 1.149-.523 1.149-1.148a1.145 1.145 0 00-2.289 0zm.63-.762h.529c.18 0 .535 0 .535.404 0 .282-.181.339-.29.376.21.014.224.152.254.347.014.122.037.331.08.404h-.324c-.008-.073-.059-.462-.059-.484-.021-.087-.051-.13-.16-.13h-.267v.614h-.297v-1.53zm.29.672h.237c.195 0 .23-.137.23-.217 0-.209-.145-.209-.223-.209h-.245v.426z"/><path fill="#fff" fill-rule="evenodd" d="M16.82 16.043a.909.909 0 00-.453-.788l-7.505-4.318a.899.899 0 00-.413-.119h-.078a.896.896 0 00-.414.12L.454 15.254a.912.912 0 00-.454.788l.016 11.63c0 .16.083.311.227.39.14.084.312.084.45 0l4.459-2.552a.916.916 0 00.454-.787v-5.432c0-.324.171-.623.451-.785l1.9-1.093a.903.903 0 01.903 0l1.898 1.093a.905.905 0 01.453.785v5.432c0 .323.174.62.454.787l4.457 2.553c.14.083.314.083.454 0a.454.454 0 00.225-.392l.02-11.629zM52.924.057a.454.454 0 00-.673.397V11.97a.317.317 0 01-.475.274l-1.88-1.082a.908.908 0 00-.905 0l-7.506 4.332a.904.904 0 00-.454.785v8.666c0 .325.174.624.454.785l7.506 4.335c.28.162.626.162.907 0l7.509-4.335a.907.907 0 00.453-.785V3.342a.91.91 0 00-.464-.792L52.924.057zm-.696 22.041a.225.225 0 01-.113.197l-2.578 1.486a.225.225 0 01-.227 0l-2.578-1.486a.226.226 0 01-.113-.197v-2.976c0-.081.043-.156.113-.197l2.578-1.488a.23.23 0 01.227 0l2.578 1.488a.23.23 0 01.113.197v2.976zm25.694-3.054a.905.905 0 00.452-.783V16.16a.91.91 0 00-.451-.785l-7.46-4.33a.909.909 0 00-.908-.002l-7.505 4.332a.905.905 0 00-.453.785v8.663c0 .326.175.627.457.788l7.457 4.25c.274.158.61.16.889.006l4.51-2.507a.453.453 0 00.008-.79l-7.553-4.334a.452.452 0 01-.228-.393v-2.716c0-.161.087-.312.226-.393l2.351-1.356a.45.45 0 01.452 0l2.351 1.356c.14.081.227.23.227.393v2.137a.454.454 0 00.68.391l4.498-2.611z" clip-rule="evenodd"/><path fill="#679E63" fill-rule="evenodd" d="M69.898 18.638a.17.17 0 01.174 0l1.44.831a.175.175 0 01.087.15v1.664a.173.173 0 01-.087.15l-1.44.832a.17.17 0 01-.174 0l-1.438-.831a.177.177 0 01-.087-.15V19.62c0-.062.034-.119.087-.15l1.438-.832z" clip-rule="evenodd"/><path fill="url(#paint0_linear)" d="M29.376 11.09a.898.898 0 00-.902 0l-7.464 4.306a.9.9 0 00-.451.781V24.8c0 .322.171.62.45.781l7.464 4.31c.28.162.623.162.901 0l7.463-4.31a.902.902 0 00.45-.781v-8.623a.898.898 0 00-.452-.78l-7.459-4.308z"/><path fill="url(#paint1_linear)" d="M36.854 15.396l-7.485-4.307a.91.91 0 00-.234-.094L20.73 25.372c.073.082.158.152.252.207l7.498 4.31a.912.912 0 00.696.088l7.878-14.429a.985.985 0 00-.2-.152z"/><path fill="url(#paint2_linear)" d="M28.226 9.505l-.103.059h.136l-.033-.059z"/><path fill="url(#paint3_linear)" d="M36.86 25.581a.936.936 0 00.44-.574l-8.206-14.019a.92.92 0 00-.634.101l-7.436 4.282 8.033 14.632a.915.915 0 00.33-.111l7.472-4.31z"/><path fill="url(#paint4_linear)" d="M37.553 25.442l-.05-.084v.112l.05-.028z"/><path fill="url(#paint5_linear)" d="M36.859 25.581l-7.473 4.31a.892.892 0 01-.33.112l.15.271 8.3-4.805v-.113l-.206-.35a.952.952 0 01-.441.575z"/><path fill="url(#paint6_linear)" d="M36.859 25.581l-7.473 4.31a.892.892 0 01-.33.112l.15.271 8.3-4.805v-.113l-.206-.35a.952.952 0 01-.441.575z"/><defs><linearGradient id="paint0_linear" x1="31.96" x2="25.216" y1="14.297" y2="28.055" gradientUnits="userSpaceOnUse"><stop stop-color="#3F873F"/><stop offset=".33" stop-color="#3F8B3D"/><stop offset=".637" stop-color="#3E9638"/><stop offset=".934" stop-color="#3DA92E"/><stop offset="1" stop-color="#3DAE2B"/></linearGradient><linearGradient id="paint1_linear" x1="27.789" x2="46.712" y1="21.497" y2="7.516" gradientUnits="userSpaceOnUse"><stop offset=".138" stop-color="#3F873F"/><stop offset=".402" stop-color="#52A044"/><stop offset=".713" stop-color="#64B749"/><stop offset=".908" stop-color="#6ABF4B"/></linearGradient><linearGradient id="paint2_linear" x1="20.295" x2="37.554" y1="9.535" y2="9.535" gradientUnits="userSpaceOnUse"><stop offset=".092" stop-color="#6ABF4B"/><stop offset=".287" stop-color="#64B749"/><stop offset=".598" stop-color="#52A044"/><stop offset=".862" stop-color="#3F873F"/></linearGradient><linearGradient id="paint3_linear" x1="20.296" x2="37.555" y1="20.487" y2="20.487" gradientUnits="userSpaceOnUse"><stop offset=".092" stop-color="#6ABF4B"/><stop offset=".287" stop-color="#64B749"/><stop offset=".598" stop-color="#52A044"/><stop offset=".862" stop-color="#3F873F"/></linearGradient><linearGradient id="paint4_linear" x1="20.295" x2="37.554" y1="25.414" y2="25.414" gradientUnits="userSpaceOnUse"><stop offset=".092" stop-color="#6ABF4B"/><stop offset=".287" stop-color="#64B749"/><stop offset=".598" stop-color="#52A044"/><stop offset=".862" stop-color="#3F873F"/></linearGradient><linearGradient id="paint5_linear" x1="20.295" x2="37.554" y1="27.641" y2="27.641" gradientUnits="userSpaceOnUse"><stop offset=".092" stop-color="#6ABF4B"/><stop offset=".287" stop-color="#64B749"/><stop offset=".598" stop-color="#52A044"/><stop offset=".862" stop-color="#3F873F"/></linearGradient><linearGradient id="paint6_linear" x1="40.069" x2="29.424" y1="13.889" y2="35.603" gradientUnits="userSpaceOnUse"><stop stop-color="#3F873F"/><stop offset=".33" stop-color="#3F8B3D"/><stop offset=".637" stop-color="#3E9638"/><stop offset=".934" stop-color="#3DA92E"/><stop offset="1" stop-color="#3DAE2B"/></linearGradient></defs></svg>