<?xml version="1.0" encoding="utf-8"?>
<!-- Generator: Adobe Illustrator 25.0.1, SVG Export Plug-In . SVG Version: 6.00 Build 0)  -->
<svg version="1.1" id="Layer_1" xmlns="http://www.w3.org/2000/svg" xmlns:xlink="http://www.w3.org/1999/xlink" x="0px" y="0px"
	 viewBox="0 0 725 625" style="enable-background:new 0 0 725 625;" xml:space="preserve">
<style type="text/css">
	.st0{fill:#FCCD1D;}
	.st1{fill:#F9A215;}
	.st2{fill:url(#SVGID_1_);}
	.st3{fill:url(#SVGID_2_);}
	.st4{fill:#2284EA;}
	.st5{fill:#1D5287;}
	.st6{display:none;fill:#FFFFFF;}
	.st7{font-family:'Righteous-Regular';}
	.st8{font-size:118.5098px;}
	.st9{fill:#FFFFFF;}
</style>
<g id="Flat">
	<g id="Color">
		<circle class="st0" cx="362.5" cy="243.8" r="243.8"/>
		<circle class="st1" cx="362.5" cy="243.8" r="181.2"/>
		<linearGradient id="SVGID_1_" gradientUnits="userSpaceOnUse" x1="525" y1="537.5" x2="725" y2="537.5">
			<stop  offset="0" style="stop-color:#000000"/>
			<stop  offset="8.501053e-02" style="stop-color:#061626"/>
			<stop  offset="0.2135" style="stop-color:#0D335A"/>
			<stop  offset="0.3444" style="stop-color:#134C86"/>
			<stop  offset="0.4752" style="stop-color:#1960AA"/>
			<stop  offset="0.6061" style="stop-color:#1D70C6"/>
			<stop  offset="0.737" style="stop-color:#207BDA"/>
			<stop  offset="0.8681" style="stop-color:#2182E6"/>
			<stop  offset="1" style="stop-color:#2284EA"/>
		</linearGradient>
		<polygon class="st2" points="525,450 525,625 725,625 650,537.5 725,450 		"/>
		<linearGradient id="SVGID_2_" gradientUnits="userSpaceOnUse" x1="0" y1="537.5" x2="200" y2="537.5">
			<stop  offset="0" style="stop-color:#2284EA"/>
			<stop  offset="0.1319" style="stop-color:#2182E6"/>
			<stop  offset="0.263" style="stop-color:#207BDA"/>
			<stop  offset="0.3939" style="stop-color:#1D70C6"/>
			<stop  offset="0.5248" style="stop-color:#1960AA"/>
			<stop  offset="0.6556" style="stop-color:#134C86"/>
			<stop  offset="0.7865" style="stop-color:#0D335A"/>
			<stop  offset="0.915" style="stop-color:#061626"/>
			<stop  offset="1" style="stop-color:#000000"/>
		</linearGradient>
		<polygon class="st3" points="200,450 200,625 0,625 75,537.5 0,450 		"/>
		<rect x="125" y="400" class="st4" width="475" height="175"/>
		<polygon class="st5" points="125,575 200,625 200,575 		"/>
		<polygon class="st5" points="600,575 525,625 525,575 		"/>
	</g>
</g>
<path class="st0" d="M393.1,256.5V123.6h-53.1c0,22-17.9,39.9-39.9,39.9h-13.2v53.1h53.1v39.9c-0.1,14.7-12,26.5-26.6,26.5h-26.5
	v53.1h159.4V283h-26.6C404.9,283,393.1,271.2,393.1,256.5z"/>
<text transform="matrix(1 0 0 1 143.2749 528.13)" class="st6 st7 st8">WINNER</text>
<g>
	<path class="st9" d="M233.3,504.4c0,3.4-0.6,6.7-1.9,9.7c-1.3,3-3.1,5.7-5.3,7.9s-4.9,4-7.9,5.3c-3,1.3-6.3,1.9-9.7,1.9
		c-3.1,0-6-0.5-8.9-1.6c-2.8-1.1-5.4-2.7-7.7-4.7c-2.3,2.1-4.8,3.7-7.7,4.7c-2.9,1.1-5.8,1.6-8.9,1.6c-3.4,0-6.7-0.6-9.7-1.9
		c-3-1.3-5.7-3.1-7.9-5.3s-4-4.9-5.3-7.9c-1.3-3-1.9-6.3-1.9-9.7v-59.3H167v59.3c0,1.2,0.2,2.2,0.6,3.3c0.4,1,1,1.9,1.8,2.7
		c0.8,0.8,1.6,1.3,2.6,1.8c1,0.4,2.1,0.6,3.2,0.6s2.2-0.2,3.2-0.6c1-0.4,1.9-1,2.6-1.8c0.8-0.8,1.3-1.6,1.8-2.7
		c0.4-1,0.6-2.1,0.6-3.3v-59.3h16.6v59.3c0,1.2,0.2,2.2,0.6,3.3c0.4,1,1,1.9,1.8,2.7c0.8,0.8,1.6,1.3,2.6,1.8c1,0.4,2.1,0.6,3.2,0.6
		s2.2-0.2,3.2-0.6c1-0.4,1.9-1,2.6-1.8c0.8-0.8,1.3-1.6,1.8-2.7c0.4-1,0.7-2.1,0.7-3.3v-59.3h16.5V504.4z"/>
	<path class="st9" d="M264.7,528.1h-16.6v-83h16.6V528.1z"/>
	<path class="st9" d="M346.5,528.1h-17.8l-32-54.6v54.6h-16.6v-83h17.8l32,54.7v-54.7h16.6V528.1z"/>
	<path class="st9" d="M428.3,528.1h-17.8l-32-54.6v54.6h-16.6v-83h17.8l32,54.7v-54.7h16.6V528.1z"/>
	<path class="st9" d="M500.5,528.1h-56.9v-83h56.9v16.6h-40.3v16.6h27.3V495h-27.3v16.5h40.3V528.1z"/>
	<path class="st9" d="M528.8,528.1h-16.6v-83h33.2c3,0,6,0.4,8.8,1.2c2.8,0.8,5.4,1.9,7.9,3.4c2.4,1.4,4.7,3.2,6.7,5.2
		s3.8,4.3,5.2,6.7c1.4,2.5,2.6,5.1,3.4,7.9c0.8,2.8,1.2,5.7,1.2,8.8c0,2.9-0.4,5.6-1.1,8.3c-0.7,2.7-1.7,5.3-3.1,7.7
		c-1.3,2.4-3,4.7-4.9,6.7c-1.9,2-4.1,3.8-6.5,5.3l9.2,21.7h-17.6l-7.2-16.7l-18.6,0.1V528.1z M528.8,461.8V495h16.6
		c2.3,0,4.4-0.4,6.4-1.3c2-0.9,3.8-2.1,5.3-3.6c1.5-1.5,2.7-3.3,3.6-5.3s1.3-4.2,1.3-6.5s-0.4-4.4-1.3-6.5s-2.1-3.8-3.6-5.3
		c-1.5-1.5-3.3-2.7-5.3-3.6c-2-0.9-4.1-1.3-6.4-1.3H528.8z"/>
</g>
</svg>
